<svg xmlns="http://www.w3.org/2000/svg" viewBox="0 0 1254 1254">
  <g fill="#d7192d" stroke="none">
    <path d="M 754.0,451.5 L 752.0,451.5 L 750.0,451.5 L 748.0,451.5 L 746.0,451.5 L 745.0,450.5 L 743.0,450.5 L 741.5,450.0 L 740.0,449.5 L 738.5,449.0 L 737.0,448.5 L 736.0,447.5 L 735.0,446.5 L 733.5,446.0 L 732.5,445.0 L 731.5,444.0 L 730.5,443.0 L 729.5,442.0 L 728.5,441.0 L 727.5,440.0 L 727.0,438.5 L 726.0,437.5 L 725.5,436.0 L 724.5,435.0 L 724.0,433.5 L 723.5,432.0 L 722.5,431.0 L 722.5,429.0 L 721.5,428.0 L 721.0,426.5 L 720.5,425.0 L 719.5,424.0 L 719.5,422.0 L 718.5,421.0 L 718.0,419.5 L 717.5,418.0 L 716.5,417.0 L 716.5,415.0 L 715.5,414.0 L 715.0,412.5 L 714.5,411.0 L 713.5,410.0 L 713.5,408.0 L 712.5,407.0 L 712.0,405.5 L 711.5,404.0 L 710.5,403.0 L 710.0,401.5 L 709.5,400.0 L 709.0,398.5 L 708.5,397.0 L 707.5,396.0 L 707.0,394.5 L 706.5,393.0 L 706.0,391.5 L 705.5,390.0 L 704.5,389.0 L 704.0,387.5 L 703.5,386.0 L 703.0,384.5 L 702.5,383.0 L 701.5,382.0 L 701.0,380.5 L 700.5,379.0 L 700.0,377.5 L 699.5,376.0 L 698.5,375.0 L 698.0,373.5 L 697.5,372.0 L 696.5,371.0 L 696.5,369.0 L 695.5,368.0 L 695.0,366.5 L 694.5,365.0 L 693.5,364.0 L 693.5,362.0 L 692.5,361.0 L 692.0,359.5 L 691.5,358.0 L 690.5,357.0 L 690.5,355.0 L 689.5,354.0 L 689.0,352.5 L 688.5,351.0 L 688.0,349.5 L 687.5,348.0 L 686.5,347.0 L 686.0,345.5 L 685.5,344.0 L 684.5,343.0 L 684.5,341.0 L 683.5,340.0 L 683.0,338.5 L 682.5,337.0 L 681.5,336.0 L 681.5,334.0 L 680.5,333.0 L 680.0,331.5 L 679.5,330.0 L 678.5,329.0 L 678.5,327.0 L 677.5,326.0 L 677.0,324.5 L 676.5,323.0 L 675.5,322.0 L 675.5,320.0 L 674.5,319.0 L 674.0,317.5 L 673.5,316.0 L 673.0,314.5 L 672.5,313.0 L 671.5,312.0 L 671.0,310.5 L 670.5,309.0 L 670.0,307.5 L 669.5,306.0 L 668.5,305.0 L 668.0,303.5 L 667.5,302.0 L 666.5,301.0 L 666.5,299.0 L 665.5,298.0 L 665.0,296.5 L 664.5,295.0 L 664.0,293.5 L 663.5,292.0 L 662.5,291.0 L 662.0,289.5 L 661.5,288.0 L 661.0,286.5 L 660.5,285.0 L 659.5,284.0 L 659.0,282.5 L 658.5,281.0 L 658.0,279.5 L 657.5,278.0 L 656.5,277.0 L 656.5,275.0 L 655.5,274.0 L 655.0,272.5 L 654.5,271.0 L 653.5,270.0 L 653.5,268.0 L 652.5,267.0 L 652.0,265.5 L 651.5,264.0 L 650.5,263.0 L 650.5,261.0 L 649.5,260.0 L 649.0,258.5 L 648.5,257.0 L 648.0,255.5 L 647.5,254.0 L 646.5,253.0 L 646.0,251.5 L 645.5,250.0 L 645.0,248.5 L 644.0,247.5 L 643.5,246.0 L 642.5,245.0 L 641.5,244.0 L 641.0,242.5 L 640.0,241.5 L 639.0,240.5 L 637.5,240.0 L 636.0,239.5 L 635.0,238.5 L 634.0,237.5 L 632.5,237.0 L 631.0,236.5 L 629.0,236.5 L 628.0,235.5 L 626.0,235.5 L 624.0,235.5 L 623.0,236.5 L 621.0,236.5 L 619.5,237.0 L 618.0,237.5 L 616.5,238.0 L 615.0,238.5 L 614.0,239.5 L 612.5,240.0 L 611.5,241.0 L 610.5,242.0 L 609.5,243.0 L 608.5,244.0 L 608.0,245.5 L 607.0,246.5 L 606.5,248.0 L 605.5,249.0 L 605.0,250.5 L 604.5,252.0 L 604.0,253.5 L 603.5,255.0 L 602.5,256.0 L 602.0,257.5 L 601.5,259.0 L 600.5,260.0 L 600.5,262.0 L 599.5,263.0 L 599.0,264.5 L 598.5,266.0 L 598.0,267.5 L 597.5,269.0 L 596.5,270.0 L 596.0,271.5 L 595.5,273.0 L 595.0,274.5 L 594.5,276.0 L 593.5,277.0 L 593.0,278.5 L 592.5,280.0 L 592.0,281.5 L 591.5,283.0 L 590.5,284.0 L 590.0,285.5 L 589.5,287.0 L 588.5,288.0 L 588.5,290.0 L 587.5,291.0 L 587.0,292.5 L 586.5,294.0 L 586.0,295.5 L 585.5,297.0 L 584.5,298.0 L 584.5,300.0 L 583.5,301.0 L 583.0,302.5 L 582.5,304.0 L 581.5,305.0 L 581.0,306.5 L 580.5,308.0 L 580.0,309.5 L 579.5,311.0 L 578.5,312.0 L 578.0,313.5 L 577.5,315.0 L 577.0,316.5 L 576.5,318.0 L 575.5,319.0 L 575.0,320.5 L 574.5,322.0 L 574.0,323.5 L 573.5,325.0 L 572.5,326.0 L 572.0,327.5 L 571.5,329.0 L 571.0,330.5 L 570.5,332.0 L 569.5,333.0 L 569.0,334.5 L 568.5,336.0 L 568.0,337.5 L 567.5,339.0 L 566.5,340.0 L 566.0,341.5 L 565.5,343.0 L 565.0,344.5 L 564.5,346.0 L 563.5,347.0 L 563.0,348.5 L 562.5,350.0 L 562.0,351.5 L 561.5,353.0 L 560.5,354.0 L 560.0,355.5 L 559.5,357.0 L 558.5,358.0 L 558.5,360.0 L 557.5,361.0 L 557.0,362.5 L 556.5,364.0 L 556.0,365.5 L 555.5,367.0 L 554.5,368.0 L 554.0,369.5 L 553.5,371.0 L 552.5,372.0 L 552.5,374.0 L 551.5,375.0 L 551.0,376.5 L 550.5,378.0 L 549.5,379.0 L 549.5,381.0 L 548.5,382.0 L 548.0,383.5 L 547.5,385.0 L 546.5,386.0 L 546.5,388.0 L 545.5,389.0 L 545.0,390.5 L 544.5,392.0 L 543.5,393.0 L 543.5,395.0 L 542.5,396.0 L 542.0,397.5 L 541.5,399.0 L 540.5,400.0 L 540.5,402.0 L 539.5,403.0 L 539.0,404.5 L 538.5,406.0 L 537.5,407.0 L 537.5,409.0 L 536.5,410.0 L 536.0,411.5 L 535.5,413.0 L 534.5,414.0 L 534.0,415.5 L 533.5,417.0 L 533.0,418.5 L 532.5,420.0 L 531.5,421.0 L 531.0,422.5 L 530.5,424.0 L 530.0,425.5 L 529.5,427.0 L 528.5,428.0 L 528.5,430.0 L 527.5,431.0 L 527.0,432.5 L 526.5,434.0 L 525.5,435.0 L 525.0,436.5 L 524.5,438.0 L 523.5,439.0 L 522.5,440.0 L 521.5,441.0 L 521.0,442.5 L 520.0,443.5 L 519.0,444.5 L 518.0,445.5 L 517.0,446.5 L 515.5,447.0 L 514.0,447.5 L 513.0,448.5 L 512.0,449.5 L 510.0,449.5 L 509.0,450.5 L 507.0,450.5 L 505.5,451.0 L 504.0,451.5 L 502.0,451.5 L 500.0,451.5 L 498.0,451.5 L 496.0,451.5 L 495.0,450.5 L 493.0,450.5 L 492.0,449.5 L 490.0,449.5 L 489.0,448.5 L 487.5,448.0 L 486.5,447.0 L 485.0,446.5 L 484.0,445.5 L 483.0,444.5 L 482.0,443.5 L 481.0,442.5 L 480.0,441.5 L 479.5,440.0 L 478.5,439.0 L 477.5,438.0 L 476.5,437.0 L 475.5,436.0 L 474.5,435.0 L 474.0,433.5 L 473.0,432.5 L 472.0,431.5 L 471.0,430.5 L 470.0,429.5 L 469.0,428.5 L 468.0,427.5 L 467.0,426.5 L 466.5,425.0 L 465.5,424.0 L 464.5,423.0 L 463.5,422.0 L 462.5,421.0 L 462.0,419.5 L 461.0,418.5 L 460.0,417.5 L 459.0,416.5 L 458.0,415.5 L 457.0,414.5 L 456.0,413.5 L 455.5,412.0 L 454.5,411.0 L 453.5,410.0 L 452.5,409.0 L 451.5,408.0 L 450.5,407.0 L 449.5,406.0 L 449.0,404.5 L 448.0,403.5 L 447.0,402.5 L 446.0,401.5 L 445.0,400.5 L 444.0,399.5 L 443.5,398.0 L 442.5,397.0 L 441.5,396.0 L 441.5,394.0 L 442.5,393.0 L 443.5,392.0 L 444.0,390.5 L 444.5,389.0 L 445.5,388.0 L 446.0,386.5 L 446.5,385.0 L 447.5,384.0 L 447.5,382.0 L 448.5,381.0 L 448.5,379.0 L 448.5,377.0 L 449.5,376.0 L 449.5,374.0 L 449.5,372.0 L 449.5,370.0 L 449.5,368.0 L 449.5,366.0 L 449.5,364.0 L 449.0,362.5 L 448.5,361.0 L 448.5,359.0 L 447.5,358.0 L 447.5,356.0 L 446.5,355.0 L 446.5,353.0 L 445.5,352.0 L 445.0,350.5 L 444.5,349.0 L 443.5,348.0 L 442.5,347.0 L 442.0,345.5 L 441.0,344.5 L 440.0,343.5 L 439.5,342.0 L 438.5,341.0 L 437.5,340.0 L 436.5,339.0 L 435.5,338.0 L 434.5,337.0 L 433.0,336.5 L 432.0,335.5 L 431.0,334.5 L 429.5,334.0 L 428.5,333.0 L 427.0,332.5 L 426.0,331.5 L 424.0,331.5 L 423.0,330.5 L 421.5,330.0 L 420.0,329.5 L 418.0,329.5 L 417.0,328.5 L 415.0,328.5 L 413.0,328.5 L 412.0,327.5 L 410.0,327.5 L 408.0,327.5 L 406.0,327.5 L 404.0,327.5 L 402.5,328.0 L 401.0,328.5 L 399.0,328.5 L 397.0,328.5 L 396.0,329.5 L 394.0,329.5 L 393.0,330.5 L 391.5,331.0 L 390.0,331.5 L 388.5,331.0 L 387.5,330.0 L 387.0,328.5 L 386.0,327.5 L 385.0,326.5 L 384.0,325.5 L 383.0,324.5 L 382.5,323.0 L 381.5,322.0 L 380.5,321.0 L 380.0,319.5 L 379.5,318.0 L 378.5,317.0 L 377.5,316.0 L 377.0,314.5 L 376.5,313.0 L 375.5,312.0 L 375.5,310.0 L 375.0,308.5 L 374.5,307.0 L 374.5,305.0 L 374.0,303.5 L 373.5,302.0 L 373.5,300.0 L 373.0,298.5 L 372.5,297.0 L 372.5,295.0 L 372.5,293.0 L 371.5,292.0 L 371.5,290.0 L 371.5,288.0 L 371.0,286.5 L 370.5,285.0 L 370.5,283.0 L 370.5,281.0 L 370.5,279.0 L 369.5,278.0 L 369.5,276.0 L 369.5,274.0 L 369.5,272.0 L 369.5,270.0 L 369.5,268.0 L 369.5,266.0 L 369.5,264.0 L 369.5,262.0 L 369.5,260.0 L 369.5,258.0 L 369.5,256.0 L 369.5,254.0 L 369.5,252.0 L 369.5,250.0 L 369.5,248.0 L 369.5,246.0 L 369.5,244.0 L 369.5,242.0 L 369.5,240.0 L 369.5,238.0 L 369.5,236.0 L 370.0,234.5 L 370.5,233.0 L 370.5,231.0 L 370.5,229.0 L 370.5,227.0 L 371.0,225.5 L 371.5,224.0 L 371.5,222.0 L 371.5,220.0 L 372.5,219.0 L 372.5,217.0 L 372.5,215.0 L 372.5,213.0 L 373.5,212.0 L 373.5,210.0 L 374.0,208.5 L 374.5,207.0 L 374.5,205.0 L 375.5,204.0 L 375.5,202.0 L 375.5,200.0 L 376.5,199.0 L 376.5,197.0 L 377.0,195.5 L 377.5,194.0 L 377.5,192.0 L 378.5,191.0 L 378.5,189.0 L 379.5,188.0 L 379.5,186.0 L 380.0,184.5 L 380.5,183.0 L 381.5,182.0 L 381.5,180.0 L 382.5,179.0 L 382.5,177.0 L 383.5,176.0 L 383.5,174.0 L 384.5,173.0 L 384.5,171.0 L 385.5,170.0 L 385.5,168.0 L 386.5,167.0 L 387.0,165.5 L 387.5,164.0 L 388.5,163.0 L 389.0,161.5 L 389.5,160.0 L 390.0,158.5 L 390.5,157.0 L 391.5,156.0 L 392.0,154.5 L 392.5,153.0 L 393.5,152.0 L 394.0,150.5 L 394.5,149.0 L 395.5,148.0 L 396.0,146.5 L 396.5,145.0 L 397.5,144.0 L 398.0,142.5 L 398.5,141.0 L 399.5,140.0 L 400.0,138.5 L 400.5,137.0 L 401.5,136.0 L 402.5,135.0 L 403.0,133.5 L 403.5,132.0 L 404.5,131.0 L 405.5,130.0 L 406.0,128.5 L 407.0,127.5 L 407.5,126.0 L 408.5,125.0 L 409.0,123.5 L 410.0,122.5 L 410.5,121.0 L 411.5,120.0 L 412.5,119.0 L 413.0,117.5 L 414.0,116.5 L 414.5,115.0 L 415.5,114.0 L 416.5,113.0 L 417.5,112.0 L 418.0,110.5 L 419.0,109.5 L 420.0,108.5 L 420.5,107.0 L 421.5,106.0 L 422.5,105.0 L 423.5,104.0 L 424.5,103.0 L 425.0,101.5 L 426.0,100.5 L 427.0,99.5 L 428.0,98.5 L 428.5,97.0 L 429.5,96.0 L 430.5,95.0 L 431.5,94.0 L 432.5,93.0 L 433.5,92.0 L 434.5,91.0 L 435.5,90.0 L 436.5,89.0 L 437.5,88.0 L 438.5,87.0 L 439.0,85.5 L 440.0,84.5 L 441.0,83.5 L 442.0,82.5 L 443.0,81.5 L 444.0,80.5 L 445.0,79.5 L 446.0,78.5 L 447.0,77.5 L 448.0,76.5 L 449.5,76.0 L 450.5,75.0 L 451.5,74.0 L 452.5,73.0 L 453.5,72.0 L 454.5,71.0 L 455.5,70.0 L 456.5,69.0 L 457.5,68.0 L 458.5,67.0 L 460.0,66.5 L 461.0,65.5 L 462.0,64.5 L 463.0,63.5 L 464.0,62.5 L 465.5,62.0 L 466.5,61.0 L 467.5,60.0 L 468.5,59.0 L 470.0,58.5 L 471.0,57.5 L 472.0,56.5 L 473.0,55.5 L 474.0,54.5 L 475.5,54.0 L 476.5,53.0 L 478.0,52.5 L 479.0,51.5 L 480.0,50.5 L 481.0,49.5 L 482.5,49.0 L 483.5,48.0 L 485.0,47.5 L 486.0,46.5 L 487.5,46.0 L 488.5,45.0 L 490.0,44.5 L 491.0,43.5 L 492.0,42.5 L 493.5,42.0 L 495.0,41.5 L 496.0,40.5 L 497.0,39.5 L 498.5,39.0 L 500.0,38.5 L 501.0,37.5 L 502.5,37.0 L 504.0,36.5 L 505.0,35.5 L 506.0,34.5 L 507.5,34.0 L 509.0,33.5 L 510.0,32.5 L 511.5,32.0 L 513.0,31.5 L 514.0,30.5 L 516.0,30.5 L 517.0,29.5 L 518.5,29.0 L 520.0,28.5 L 521.0,27.5 L 522.5,27.0 L 524.0,26.5 L 525.0,25.5 L 527.0,25.5 L 528.0,24.5 L 529.5,24.0 L 531.0,23.5 L 532.5,23.0 L 534.0,22.5 L 535.0,21.5 L 537.0,21.5 L 538.0,20.5 L 540.0,20.5 L 541.0,19.5 L 542.5,19.0 L 544.0,18.5 L 545.5,18.0 L 547.0,17.5 L 548.5,17.0 L 550.0,16.5 L 551.5,16.0 L 553.0,15.5 L 554.5,15.0 L 556.0,14.5 L 558.0,14.5 L 559.0,13.5 L 561.0,13.5 L 562.5,13.0 L 564.0,12.5 L 566.0,12.5 L 567.0,11.5 L 569.0,11.5 L 571.0,11.5 L 572.0,10.5 L 574.0,10.5 L 576.0,10.5 L 577.0,9.5 L 579.0,9.5 L 581.0,9.5 L 582.0,8.5 L 584.0,8.5 L 586.0,8.5 L 587.5,8.0 L 589.0,7.5 L 591.0,7.5 L 593.0,7.5 L 595.0,7.5 L 596.5,7.0 L 598.0,6.5 L 600.0,6.5 L 602.0,6.5 L 604.0,6.5 L 606.0,6.5 L 608.0,6.5 L 609.0,5.5 L 611.0,5.5 L 613.0,5.5 L 615.0,5.5 L 617.0,5.5 L 619.0,5.5 L 621.0,5.5 L 623.0,5.5 L 625.0,5.5 L 627.0,5.5 L 629.0,5.5 L 631.0,5.5 L 633.0,5.5 L 635.0,5.5 L 637.0,5.5 L 639.0,5.5 L 641.0,5.5 L 643.0,5.5 L 645.0,5.5 L 647.0,5.5 L 649.0,5.5 L 650.0,6.5 L 652.0,6.5 L 654.0,6.5 L 656.0,6.5 L 657.5,7.0 L 659.0,7.5 L 661.0,7.5 L 663.0,7.5 L 665.0,7.5 L 666.5,8.0 L 668.0,8.5 L 670.0,8.5 L 672.0,8.5 L 673.5,9.0 L 675.0,9.5 L 677.0,9.5 L 678.5,10.0 L 680.0,10.5 L 682.0,10.5 L 683.0,11.5 L 685.0,11.5 L 687.0,11.5 L 688.0,12.5 L 690.0,12.5 L 691.5,13.0 L 693.0,13.5 L 695.0,13.5 L 696.0,14.5 L 698.0,14.5 L 699.5,15.0 L 701.0,15.5 L 702.5,16.0 L 704.0,16.5 L 705.5,17.0 L 707.0,17.5 L 708.5,18.0 L 710.0,18.5 L 711.5,19.0 L 713.0,19.5 L 714.5,20.0 L 716.0,20.5 L 717.5,21.0 L 719.0,21.5 L 720.0,22.5 L 722.0,22.5 L 723.0,23.5 L 724.5,24.0 L 726.0,24.5 L 727.5,25.0 L 729.0,25.5 L 730.0,26.5 L 731.5,27.0 L 733.0,27.5 L 734.0,28.5 L 736.0,28.5 L 737.0,29.5 L 738.5,30.0 L 740.0,30.5 L 741.0,31.5 L 742.5,32.0 L 744.0,32.5 L 745.0,33.5 L 746.5,34.0 L 747.5,35.0 L 749.0,35.5 L 750.0,36.5 L 751.5,37.0 L 753.0,37.5 L 754.0,38.5 L 755.5,39.0 L 757.0,39.5 L 758.0,40.5 L 759.0,41.5 L 760.5,42.0 L 762.0,42.5 L 763.0,43.5 L 764.0,44.5 L 765.5,45.0 L 766.5,46.0 L 768.0,46.5 L 769.0,47.5 L 770.0,48.5 L 771.5,49.0 L 772.5,50.0 L 774.0,50.5 L 775.0,51.5 L 776.0,52.5 L 777.0,53.5 L 778.5,54.0 L 779.5,55.0 L 780.5,56.0 L 782.0,56.5 L 783.0,57.5 L 784.0,58.5 L 785.0,59.5 L 786.5,60.0 L 787.5,61.0 L 788.5,62.0 L 789.5,63.0 L 791.0,63.5 L 792.0,64.5 L 793.0,65.5 L 794.0,66.5 L 795.0,67.5 L 796.0,68.5 L 797.0,69.5 L 798.5,70.0 L 799.5,71.0 L 800.5,72.0 L 801.5,73.0 L 802.5,74.0 L 803.5,75.0 L 804.5,76.0 L 805.5,77.0 L 806.5,78.0 L 807.5,79.0 L 808.5,80.0 L 809.5,81.0 L 810.5,82.0 L 811.5,83.0 L 812.5,84.0 L 813.5,85.0 L 814.5,86.0 L 815.5,87.0 L 816.5,88.0 L 817.5,89.0 L 818.5,90.0 L 819.0,91.5 L 820.0,92.5 L 821.0,93.5 L 822.0,94.5 L 823.0,95.5 L 824.0,96.5 L 825.0,97.5 L 825.5,99.0 L 826.5,100.0 L 827.5,101.0 L 828.5,102.0 L 829.0,103.5 L 830.0,104.5 L 831.0,105.5 L 832.0,106.5 L 832.5,108.0 L 833.5,109.0 L 834.5,110.0 L 835.5,111.0 L 836.0,112.5 L 837.0,113.5 L 837.5,115.0 L 838.5,116.0 L 839.5,117.0 L 840.5,118.0 L 841.0,119.5 L 841.5,121.0 L 842.5,122.0 L 843.5,123.0 L 844.0,124.5 L 845.0,125.5 L 845.5,127.0 L 846.5,128.0 L 847.5,129.0 L 848.0,130.5 L 848.5,132.0 L 849.5,133.0 L 850.5,134.0 L 851.0,135.5 L 851.5,137.0 L 852.5,138.0 L 853.0,139.5 L 853.5,141.0 L 854.5,142.0 L 855.5,143.0 L 856.0,144.5 L 856.5,146.0 L 857.5,147.0 L 858.0,148.5 L 858.5,150.0 L 859.0,151.5 L 860.0,152.5 L 860.5,154.0 L 861.0,155.5 L 861.5,157.0 L 862.5,158.0 L 863.0,159.5 L 863.5,161.0 L 864.5,162.0 L 864.5,164.0 L 865.5,165.0 L 866.0,166.5 L 866.5,168.0 L 867.0,169.5 L 867.5,171.0 L 868.0,172.5 L 868.5,174.0 L 869.5,175.0 L 869.5,177.0 L 870.5,178.0 L 870.5,180.0 L 871.5,181.0 L 871.5,183.0 L 872.5,184.0 L 872.5,186.0 L 873.5,187.0 L 873.5,189.0 L 874.5,190.0 L 874.5,192.0 L 875.0,193.5 L 875.5,195.0 L 876.0,196.5 L 876.5,198.0 L 876.5,200.0 L 877.5,201.0 L 877.5,203.0 L 877.5,205.0 L 878.0,206.5 L 878.5,208.0 L 878.5,210.0 L 879.5,211.0 L 879.5,213.0 L 879.5,215.0 L 880.0,216.5 L 880.5,218.0 L 880.5,220.0 L 880.5,222.0 L 880.5,224.0 L 881.5,225.0 L 881.5,227.0 L 881.5,229.0 L 882.0,230.5 L 882.0,231.5 L 882.0,232.5 L 882.5,234.0 L 882.5,236.0 L 882.5,238.0 L 882.5,240.0 L 882.5,242.0 L 882.5,244.0 L 882.5,246.0 L 882.5,248.0 L 882.5,250.0 L 882.5,252.0 L 882.5,254.0 L 882.5,256.0 L 882.5,258.0 L 882.5,260.0 L 882.5,262.0 L 882.5,264.0 L 882.5,266.0 L 882.5,268.0 L 882.5,270.0 L 882.5,272.0 L 882.5,274.0 L 882.5,276.0 L 882.5,278.0 L 882.5,280.0 L 881.5,281.0 L 881.5,283.0 L 881.5,285.0 L 881.5,287.0 L 880.5,288.0 L 880.5,290.0 L 880.5,292.0 L 880.5,294.0 L 879.5,295.0 L 879.5,297.0 L 879.5,299.0 L 879.0,300.5 L 878.5,302.0 L 878.5,304.0 L 877.5,305.0 L 877.5,307.0 L 876.5,308.0 L 876.5,310.0 L 876.0,311.5 L 875.5,313.0 L 875.0,314.5 L 874.5,316.0 L 873.5,317.0 L 873.0,318.5 L 872.0,319.5 L 871.5,321.0 L 870.5,322.0 L 869.5,323.0 L 869.0,324.5 L 868.0,325.5 L 867.0,326.5 L 866.5,328.0 L 865.5,329.0 L 864.5,330.0 L 863.5,331.0 L 862.5,332.0 L 861.5,332.0 L 860.0,331.5 L 859.0,330.5 L 857.0,330.5 L 856.0,329.5 L 854.0,329.5 L 852.5,329.0 L 851.0,328.5 L 849.0,328.5 L 847.5,328.0 L 846.0,327.5 L 844.0,327.5 L 842.0,327.5 L 840.0,327.5 L 838.0,327.5 L 837.0,328.5 L 835.0,328.5 L 833.0,328.5 L 832.0,329.5 L 830.0,329.5 L 829.0,330.5 L 827.0,330.5 L 826.0,331.5 L 824.5,332.0 L 823.0,332.5 L 822.0,333.5 L 820.5,334.0 L 819.5,335.0 L 818.0,335.5 L 817.0,336.5 L 816.0,337.5 L 815.0,338.5 L 814.0,339.5 L 813.0,340.5 L 812.0,341.5 L 811.0,342.5 L 810.0,343.5 L 809.5,345.0 L 808.5,346.0 L 807.5,347.0 L 807.0,348.5 L 806.5,350.0 L 805.5,351.0 L 805.0,352.5 L 804.5,354.0 L 803.5,355.0 L 803.5,357.0 L 802.5,358.0 L 802.5,360.0 L 802.0,361.5 L 801.5,363.0 L 801.5,365.0 L 801.5,367.0 L 801.5,369.0 L 801.5,371.0 L 801.5,373.0 L 801.5,375.0 L 801.5,377.0 L 802.0,378.5 L 802.5,380.0 L 802.5,382.0 L 803.5,383.0 L 803.5,385.0 L 804.5,386.0 L 805.0,387.5 L 805.5,389.0 L 806.5,390.0 L 806.5,392.0 L 807.5,393.0 L 808.5,394.0 L 808.5,396.0 L 807.5,397.0 L 806.5,398.0 L 805.5,399.0 L 805.0,400.5 L 804.0,401.5 L 803.0,402.5 L 802.0,403.5 L 801.0,404.5 L 800.0,405.5 L 799.5,407.0 L 798.5,408.0 L 797.5,409.0 L 796.5,410.0 L 795.5,411.0 L 795.0,412.5 L 794.0,413.5 L 793.0,414.5 L 792.0,415.5 L 791.0,416.5 L 790.5,418.0 L 789.5,419.0 L 788.5,420.0 L 787.5,421.0 L 786.5,422.0 L 785.5,423.0 L 785.0,424.5 L 784.0,425.5 L 783.0,426.5 L 782.0,427.5 L 781.0,428.5 L 780.0,429.5 L 779.5,431.0 L 778.5,432.0 L 777.5,433.0 L 776.5,434.0 L 775.5,435.0 L 774.5,436.0 L 774.0,437.5 L 773.0,438.5 L 772.0,439.5 L 771.0,440.5 L 770.5,442.0 L 769.5,443.0 L 768.5,444.0 L 767.0,444.5 L 766.0,445.5 L 765.0,446.5 L 763.5,447.0 L 762.5,448.0 L 761.0,448.5 L 760.0,449.5 L 758.0,449.5 L 757.0,450.5 L 755.0,450.5 L 754.0,451.5 Z"/>
    <path d="M 0.0,537.5 L 0.5,536.0 L 0.5,534.0 L 0.5,532.0 L 0.5,530.0 L 1.5,529.0 L 1.5,527.0 L 1.5,525.0 L 1.5,523.0 L 2.0,521.5 L 2.5,520.0 L 2.5,518.0 L 2.5,516.0 L 2.5,514.0 L 3.5,513.0 L 3.5,511.0 L 4.0,509.5 L 4.5,508.0 L 4.5,506.0 L 4.5,504.0 L 5.5,503.0 L 5.5,501.0 L 6.0,499.5 L 6.5,498.0 L 6.5,496.0 L 7.5,495.0 L 7.5,493.0 L 7.5,491.0 L 8.5,490.0 L 8.5,488.0 L 9.0,486.5 L 9.5,485.0 L 9.5,483.0 L 10.5,482.0 L 10.5,480.0 L 11.5,479.0 L 11.5,477.0 L 12.5,476.0 L 12.5,474.0 L 13.5,473.0 L 13.5,471.0 L 14.5,470.0 L 14.5,468.0 L 15.5,467.0 L 15.5,465.0 L 16.5,464.0 L 16.5,462.0 L 17.5,461.0 L 18.0,459.5 L 18.5,458.0 L 19.0,456.5 L 19.5,455.0 L 20.5,454.0 L 21.0,452.5 L 21.5,451.0 L 22.0,449.5 L 22.5,448.0 L 23.5,447.0 L 24.0,445.5 L 24.5,444.0 L 25.0,442.5 L 25.5,441.0 L 26.5,440.0 L 27.0,438.5 L 27.5,437.0 L 28.5,436.0 L 29.5,435.0 L 30.0,433.5 L 30.5,432.0 L 31.5,431.0 L 32.0,429.5 L 32.5,428.0 L 33.5,427.0 L 34.0,425.5 L 34.5,424.0 L 35.5,423.0 L 36.5,422.0 L 37.0,420.5 L 37.5,419.0 L 38.5,418.0 L 39.0,416.5 L 40.0,415.5 L 40.5,414.0 L 41.5,413.0 L 42.5,412.0 L 43.0,410.5 L 44.0,409.5 L 44.5,408.0 L 45.5,407.0 L 46.5,406.0 L 47.0,404.5 L 48.0,403.5 L 48.5,402.0 L 49.5,401.0 L 50.5,400.0 L 51.0,398.5 L 52.0,397.5 L 53.0,396.5 L 53.5,395.0 L 54.5,394.0 L 55.5,393.0 L 56.5,392.0 L 57.0,390.5 L 58.0,389.5 L 59.0,388.5 L 60.0,387.5 L 60.5,386.0 L 61.5,385.0 L 62.5,384.0 L 63.5,383.0 L 64.5,382.0 L 65.5,381.0 L 66.0,379.5 L 67.0,378.5 L 68.0,377.5 L 69.0,376.5 L 70.0,375.5 L 71.0,374.5 L 72.0,373.5 L 73.0,372.5 L 74.0,371.5 L 75.0,370.5 L 76.0,369.5 L 76.5,368.0 L 77.5,367.0 L 79.0,366.5 L 79.5,365.0 L 80.5,364.0 L 81.5,363.0 L 83.0,362.5 L 84.0,361.5 L 85.0,360.5 L 86.0,359.5 L 87.0,358.5 L 88.0,357.5 L 89.0,356.5 L 90.0,355.5 L 91.0,354.5 L 92.0,353.5 L 93.5,353.0 L 94.5,352.0 L 95.5,351.0 L 96.5,350.0 L 97.5,349.0 L 98.5,348.0 L 100.0,347.5 L 101.0,346.5 L 102.0,345.5 L 103.0,344.5 L 104.0,343.5 L 105.5,343.0 L 106.5,342.0 L 107.5,341.0 L 109.0,340.5 L 110.0,339.5 L 111.0,338.5 L 112.0,337.5 L 113.5,337.0 L 114.5,336.0 L 116.0,335.5 L 117.0,334.5 L 118.0,333.5 L 119.5,333.0 L 120.5,332.0 L 122.0,331.5 L 123.0,330.5 L 124.0,329.5 L 125.5,329.0 L 127.0,328.5 L 128.0,327.5 L 129.0,326.5 L 130.5,326.0 L 132.0,325.5 L 133.0,324.5 L 134.0,323.5 L 135.5,323.0 L 137.0,322.5 L 138.0,321.5 L 139.5,321.0 L 141.0,320.5 L 142.0,319.5 L 143.5,319.0 L 145.0,318.5 L 146.0,317.5 L 147.5,317.0 L 149.0,316.5 L 150.0,315.5 L 151.5,315.0 L 153.0,314.5 L 154.0,313.5 L 155.5,313.0 L 157.0,312.5 L 158.0,311.5 L 160.0,311.5 L 161.0,310.5 L 162.5,310.0 L 164.0,309.5 L 165.5,309.0 L 167.0,308.5 L 168.0,307.5 L 170.0,307.5 L 171.0,306.5 L 173.0,306.5 L 174.0,305.5 L 176.0,305.5 L 177.0,304.5 L 178.5,304.0 L 180.0,303.5 L 181.5,303.0 L 183.0,302.5 L 184.5,302.0 L 186.0,301.5 L 188.0,301.5 L 189.0,300.5 L 191.0,300.5 L 192.0,299.5 L 194.0,299.5 L 195.5,299.0 L 197.0,298.5 L 199.0,298.5 L 200.0,297.5 L 202.0,297.5 L 203.5,297.0 L 205.0,296.5 L 207.0,296.5 L 208.5,296.0 L 210.0,295.5 L 212.0,295.5 L 213.5,295.0 L 215.0,294.5 L 217.0,294.5 L 219.0,294.5 L 220.0,293.5 L 222.0,293.5 L 224.0,293.5 L 226.0,293.5 L 227.5,293.0 L 229.0,292.5 L 231.0,292.5 L 233.0,292.5 L 235.0,292.5 L 237.0,292.5 L 239.0,292.5 L 240.0,291.5 L 242.0,291.5 L 244.0,291.5 L 246.0,291.5 L 248.0,291.5 L 250.0,291.5 L 252.0,291.5 L 254.0,291.5 L 256.0,291.5 L 258.0,291.5 L 260.0,291.5 L 262.0,291.5 L 264.0,291.5 L 266.0,291.5 L 267.5,292.0 L 269.0,292.5 L 271.0,292.5 L 273.0,292.5 L 275.0,292.5 L 277.0,292.5 L 279.0,292.5 L 280.0,293.5 L 282.0,293.5 L 284.0,293.5 L 286.0,293.5 L 287.5,294.0 L 289.0,294.5 L 291.0,294.5 L 292.5,295.0 L 294.0,295.5 L 296.0,295.5 L 298.0,295.5 L 299.0,296.5 L 301.0,296.5 L 302.5,297.0 L 304.0,297.5 L 306.0,297.5 L 307.5,298.0 L 309.0,298.5 L 310.5,299.0 L 312.0,299.5 L 314.0,299.5 L 315.0,300.5 L 317.0,300.5 L 318.0,301.5 L 320.0,301.5 L 321.0,302.5 L 323.0,302.5 L 324.0,303.5 L 326.0,303.5 L 327.0,304.5 L 329.0,304.5 L 330.0,305.5 L 332.0,305.5 L 333.0,306.5 L 335.0,306.5 L 336.0,307.5 L 337.5,308.0 L 339.0,308.5 L 340.5,309.0 L 342.0,309.5 L 343.0,310.5 L 344.5,311.0 L 346.0,311.5 L 347.0,312.5 L 348.5,313.0 L 350.0,313.5 L 351.5,314.0 L 353.0,314.5 L 354.0,315.5 L 355.5,316.0 L 356.5,317.0 L 357.5,318.0 L 359.0,318.5 L 360.0,319.5 L 361.0,320.5 L 362.0,321.5 L 363.0,322.5 L 364.5,323.0 L 365.5,324.0 L 366.5,325.0 L 367.5,326.0 L 368.5,327.0 L 369.0,328.5 L 370.0,329.5 L 371.0,330.5 L 372.0,331.5 L 373.0,332.5 L 373.5,334.0 L 374.5,335.0 L 375.5,336.0 L 376.0,337.5 L 377.0,338.5 L 377.5,340.0 L 376.5,341.0 L 376.0,342.5 L 375.0,343.5 L 374.0,344.5 L 373.5,346.0 L 372.5,347.0 L 371.5,348.0 L 371.0,349.5 L 370.5,351.0 L 369.5,352.0 L 369.0,353.5 L 368.5,355.0 L 368.0,356.5 L 367.5,358.0 L 367.0,359.5 L 366.5,361.0 L 366.5,363.0 L 366.0,364.5 L 365.5,366.0 L 365.5,368.0 L 365.5,370.0 L 365.5,372.0 L 366.0,373.5 L 366.5,375.0 L 366.5,377.0 L 366.5,379.0 L 367.5,380.0 L 367.5,382.0 L 368.0,383.5 L 368.5,385.0 L 369.5,386.0 L 369.5,388.0 L 370.5,389.0 L 371.0,390.5 L 371.5,392.0 L 372.5,393.0 L 373.5,394.0 L 374.0,395.5 L 375.0,396.5 L 376.0,397.5 L 377.0,398.5 L 378.0,399.5 L 379.0,400.5 L 380.0,401.5 L 381.0,402.5 L 382.0,403.5 L 383.0,404.5 L 384.5,405.0 L 385.5,406.0 L 387.0,406.5 L 388.0,407.5 L 389.5,408.0 L 391.0,408.5 L 392.5,409.0 L 394.0,409.5 L 395.0,410.5 L 397.0,410.5 L 398.5,411.0 L 400.0,411.5 L 402.0,411.5 L 404.0,411.5 L 406.0,411.5 L 407.0,412.5 L 409.0,412.5 L 411.0,412.5 L 412.5,412.0 L 414.0,411.5 L 416.0,411.5 L 417.5,411.0 L 419.0,410.5 L 421.0,410.5 L 423.0,410.5 L 424.0,411.5 L 425.0,412.5 L 425.5,414.0 L 426.5,415.0 L 427.5,416.0 L 428.0,417.5 L 429.0,418.5 L 429.5,420.0 L 430.5,421.0 L 431.5,422.0 L 432.5,423.0 L 433.0,424.5 L 434.0,425.5 L 434.5,427.0 L 435.5,428.0 L 436.5,429.0 L 437.5,430.0 L 438.5,431.0 L 439.0,432.5 L 440.0,433.5 L 440.5,435.0 L 441.5,436.0 L 442.0,437.5 L 443.0,438.5 L 443.5,440.0 L 444.5,441.0 L 445.5,442.0 L 446.5,443.0 L 447.0,444.5 L 448.0,445.5 L 448.5,447.0 L 449.5,448.0 L 450.5,449.0 L 451.0,450.5 L 452.0,451.5 L 452.5,453.0 L 453.5,454.0 L 454.0,455.5 L 454.5,457.0 L 455.5,458.0 L 456.0,459.5 L 456.5,461.0 L 457.0,462.5 L 457.5,464.0 L 457.5,466.0 L 458.5,467.0 L 458.5,469.0 L 458.5,471.0 L 458.5,473.0 L 458.5,475.0 L 458.5,477.0 L 458.5,479.0 L 457.5,480.0 L 457.5,482.0 L 456.5,483.0 L 456.5,485.0 L 455.5,486.0 L 455.5,488.0 L 454.5,489.0 L 454.0,490.5 L 453.5,492.0 L 452.5,493.0 L 451.5,494.0 L 451.0,495.5 L 450.0,496.5 L 449.0,497.5 L 448.0,498.5 L 447.5,500.0 L 446.5,501.0 L 445.5,502.0 L 444.5,503.0 L 443.0,503.5 L 442.0,504.5 L 441.0,505.5 L 440.0,506.5 L 439.0,507.5 L 437.5,508.0 L 436.0,508.5 L 435.0,509.5 L 433.5,510.0 L 432.0,510.5 L 430.5,511.0 L 429.0,511.5 L 427.5,512.0 L 426.0,512.5 L 424.0,512.5 L 423.0,513.5 L 421.0,513.5 L 419.0,513.5 L 417.5,514.0 L 416.0,514.5 L 414.0,514.5 L 412.5,515.0 L 411.0,515.5 L 409.0,515.5 L 407.5,516.0 L 406.0,516.5 L 404.0,516.5 L 402.0,516.5 L 401.0,517.5 L 399.0,517.5 L 397.0,517.5 L 395.5,518.0 L 394.0,518.5 L 392.0,518.5 L 390.5,519.0 L 389.0,519.5 L 387.0,519.5 L 385.0,519.5 L 384.0,520.5 L 382.0,520.5 L 380.0,520.5 L 379.0,521.5 L 377.0,521.5 L 375.0,521.5 L 374.0,522.5 L 372.0,522.5 L 370.0,522.5 L 368.5,523.0 L 367.0,523.5 L 365.0,523.5 L 363.5,524.0 L 362.0,524.5 L 360.0,524.5 L 358.0,524.5 L 357.0,525.5 L 355.0,525.5 L 353.0,525.5 L 351.5,526.0 L 350.0,526.5 L 348.0,526.5 L 346.5,527.0 L 345.0,527.5 L 343.0,527.5 L 341.0,527.5 L 340.0,528.5 L 338.0,528.5 L 336.0,528.5 L 335.0,529.5 L 333.0,529.5 L 331.0,529.5 L 329.5,530.0 L 328.0,530.5 L 326.0,530.5 L 324.0,530.5 L 323.0,531.5 L 321.0,531.5 L 319.0,531.5 L 318.0,532.5 L 316.0,532.5 L 314.0,532.5 L 312.5,533.0 L 311.0,533.5 L 309.0,533.5 L 307.5,534.0 L 306.0,534.5 L 304.0,534.5 L 302.0,534.5 L 301.0,535.5 L 299.0,535.5 L 297.0,535.5 L 295.5,536.0 L 294.0,536.5 L 292.0,536.5 L 290.5,537.0 L 289.0,537.5 L 287.0,537.5 L 285.0,537.5 L 284.0,538.5 L 282.0,538.5 L 280.0,538.5 L 278.5,539.0 L 277.0,539.5 L 275.0,539.5 L 273.5,540.0 L 272.0,540.5 L 270.0,540.5 L 268.0,540.5 L 267.0,541.5 L 265.0,541.5 L 263.0,541.5 L 261.5,542.0 L 260.0,542.5 L 258.0,542.5 L 256.0,542.5 L 255.0,543.5 L 253.0,543.5 L 251.0,543.5 L 250.0,544.5 L 248.0,544.5 L 246.0,544.5 L 245.0,545.5 L 243.0,545.5 L 241.0,545.5 L 239.0,545.5 L 238.0,546.5 L 236.0,546.5 L 234.0,546.5 L 233.0,547.5 L 231.0,547.5 L 229.0,547.5 L 227.5,548.0 L 226.0,548.5 L 224.5,549.0 L 223.0,549.5 L 222.0,550.5 L 220.5,551.0 L 219.0,551.5 L 218.0,552.5 L 217.0,553.5 L 216.0,554.5 L 215.5,556.0 L 214.5,557.0 L 213.5,558.0 L 213.0,559.5 L 212.5,561.0 L 211.5,562.0 L 211.5,564.0 L 211.0,565.5 L 210.5,567.0 L 210.5,569.0 L 210.5,571.0 L 210.5,573.0 L 211.5,574.0 L 211.5,576.0 L 212.0,577.5 L 212.5,579.0 L 213.5,580.0 L 214.0,581.5 L 214.5,583.0 L 215.5,584.0 L 216.5,585.0 L 217.5,586.0 L 218.5,587.0 L 219.5,588.0 L 220.5,589.0 L 221.5,590.0 L 222.5,591.0 L 223.5,592.0 L 224.5,593.0 L 225.5,594.0 L 226.5,595.0 L 227.5,596.0 L 228.5,597.0 L 229.5,598.0 L 230.5,599.0 L 231.5,600.0 L 232.0,601.5 L 233.0,602.5 L 234.0,603.5 L 235.0,604.5 L 236.5,605.0 L 237.0,606.5 L 238.0,607.5 L 239.0,608.5 L 240.0,609.5 L 241.0,610.5 L 242.0,611.5 L 243.0,612.5 L 244.0,613.5 L 245.0,614.5 L 246.0,615.5 L 247.0,616.5 L 248.0,617.5 L 249.0,618.5 L 250.0,619.5 L 251.0,620.5 L 252.0,621.5 L 253.0,622.5 L 254.0,623.5 L 255.0,624.5 L 256.0,625.5 L 257.0,626.5 L 258.0,627.5 L 259.0,628.5 L 260.0,629.5 L 260.5,631.0 L 261.5,632.0 L 262.5,633.0 L 263.5,634.0 L 264.5,635.0 L 265.5,636.0 L 266.5,637.0 L 267.5,638.0 L 268.5,639.0 L 269.5,640.0 L 270.5,641.0 L 271.5,642.0 L 272.5,643.0 L 273.5,644.0 L 274.5,645.0 L 275.5,646.0 L 276.5,647.0 L 277.5,648.0 L 278.5,649.0 L 279.5,650.0 L 280.5,651.0 L 281.5,652.0 L 282.5,653.0 L 283.5,654.0 L 284.5,655.0 L 285.5,656.0 L 286.5,657.0 L 287.5,658.0 L 288.5,659.0 L 289.5,660.0 L 290.5,661.0 L 291.5,662.0 L 292.5,663.0 L 293.5,664.0 L 294.5,665.0 L 295.5,666.0 L 296.5,667.0 L 297.0,668.5 L 298.5,669.0 L 299.5,670.0 L 300.0,671.5 L 301.0,672.5 L 302.0,673.5 L 303.0,674.5 L 304.0,675.5 L 305.0,676.5 L 306.0,677.5 L 307.0,678.5 L 308.0,679.5 L 309.0,680.5 L 310.0,681.5 L 311.0,682.5 L 312.0,683.5 L 313.0,684.5 L 314.0,685.5 L 315.0,686.5 L 316.0,687.5 L 317.0,688.5 L 318.0,689.5 L 319.0,690.5 L 320.0,691.5 L 321.0,692.5 L 321.5,694.0 L 322.5,695.0 L 323.5,696.0 L 324.5,697.0 L 325.5,698.0 L 326.5,699.0 L 327.5,700.0 L 328.5,701.0 L 329.5,702.0 L 330.5,703.0 L 331.5,704.0 L 332.5,705.0 L 333.5,706.0 L 334.5,707.0 L 335.5,708.0 L 336.5,709.0 L 337.5,710.0 L 338.5,711.0 L 339.5,712.0 L 340.0,713.5 L 341.0,714.5 L 342.0,715.5 L 343.0,716.5 L 344.0,717.5 L 345.0,718.5 L 346.0,719.5 L 347.0,720.5 L 348.0,721.5 L 349.0,722.5 L 350.0,723.5 L 351.0,724.5 L 352.0,725.5 L 353.0,726.5 L 354.0,727.5 L 355.0,728.5 L 355.5,730.0 L 356.5,731.0 L 357.5,732.0 L 358.0,733.5 L 359.0,734.5 L 359.5,736.0 L 360.5,737.0 L 360.5,739.0 L 361.5,740.0 L 361.5,742.0 L 361.5,744.0 L 362.5,745.0 L 362.5,747.0 L 362.5,749.0 L 362.5,751.0 L 362.0,752.5 L 361.5,754.0 L 361.5,756.0 L 361.0,757.5 L 360.5,759.0 L 360.0,760.5 L 359.5,762.0 L 358.5,763.0 L 357.5,764.0 L 357.0,765.5 L 356.0,766.5 L 355.5,768.0 L 354.5,769.0 L 353.5,770.0 L 352.5,771.0 L 351.5,772.0 L 350.0,772.5 L 349.0,773.5 L 348.0,774.5 L 346.5,775.0 L 345.5,776.0 L 344.0,776.5 L 343.0,777.5 L 342.0,778.5 L 340.5,779.0 L 339.5,780.0 L 338.0,780.5 L 337.0,781.5 L 335.5,782.0 L 334.5,783.0 L 333.0,783.5 L 332.0,784.5 L 331.0,785.5 L 329.5,786.0 L 328.5,786.0 L 327.5,785.0 L 326.5,784.0 L 325.5,783.0 L 324.0,782.5 L 323.0,781.5 L 322.0,780.5 L 321.0,779.5 L 319.5,779.0 L 318.0,778.5 L 317.0,777.5 L 315.5,777.0 L 314.0,776.5 L 313.0,775.5 L 311.0,775.5 L 310.0,774.5 L 308.0,774.5 L 306.0,774.5 L 305.0,773.5 L 303.0,773.5 L 301.0,773.5 L 299.0,773.5 L 297.0,773.5 L 295.0,773.5 L 293.0,773.5 L 292.0,774.5 L 290.0,774.5 L 288.0,774.5 L 287.0,775.5 L 285.0,775.5 L 284.0,776.5 L 282.5,777.0 L 281.0,777.5 L 279.5,778.0 L 278.5,779.0 L 277.0,779.5 L 276.0,780.5 L 274.5,781.0 L 273.5,782.0 L 272.5,783.0 L 271.5,784.0 L 270.5,785.0 L 269.5,786.0 L 268.5,787.0 L 267.5,788.0 L 266.5,789.0 L 265.5,790.0 L 264.5,791.0 L 264.0,792.5 L 263.5,794.0 L 262.5,795.0 L 262.0,796.5 L 261.5,798.0 L 260.5,799.0 L 260.0,800.5 L 259.5,802.0 L 259.0,803.5 L 258.5,805.0 L 258.0,806.5 L 257.5,808.0 L 257.5,810.0 L 257.5,812.0 L 257.5,814.0 L 257.5,816.0 L 257.5,818.0 L 257.0,819.5 L 256.0,820.5 L 254.0,820.5 L 252.5,821.0 L 251.0,821.5 L 249.0,821.5 L 248.0,822.5 L 246.0,822.5 L 244.0,822.5 L 243.0,823.5 L 241.0,823.5 L 239.0,823.5 L 237.0,823.5 L 235.0,823.5 L 233.0,823.5 L 231.0,823.5 L 229.0,823.5 L 227.0,823.5 L 225.0,823.5 L 223.5,823.0 L 222.0,822.5 L 220.0,822.5 L 218.0,822.5 L 216.5,822.0 L 215.0,821.5 L 213.0,821.5 L 211.0,821.5 L 209.0,821.5 L 208.0,820.5 L 206.0,820.5 L 204.0,820.5 L 203.0,819.5 L 201.0,819.5 L 199.0,819.5 L 198.0,818.5 L 196.0,818.5 L 195.0,817.5 L 193.0,817.5 L 191.5,817.0 L 190.0,816.5 L 188.0,816.5 L 187.0,815.5 L 185.0,815.5 L 184.0,814.5 L 182.0,814.5 L 180.5,814.0 L 179.0,813.5 L 177.5,813.0 L 176.0,812.5 L 174.5,812.0 L 173.0,811.5 L 172.0,810.5 L 170.0,810.5 L 169.0,809.5 L 167.0,809.5 L 166.0,808.5 L 164.5,808.0 L 163.0,807.5 L 161.5,807.0 L 160.0,806.5 L 158.5,806.0 L 157.0,805.5 L 156.0,804.5 L 154.5,804.0 L 153.0,803.5 L 152.0,802.5 L 150.0,802.5 L 149.0,801.5 L 147.5,801.0 L 146.0,800.5 L 145.0,799.5 L 143.5,799.0 L 142.0,798.5 L 141.0,797.5 L 139.5,797.0 L 138.0,796.5 L 137.0,795.5 L 135.5,795.0 L 134.0,794.5 L 133.0,793.5 L 132.0,792.5 L 130.5,792.0 L 129.0,791.5 L 128.0,790.5 L 127.0,789.5 L 125.5,789.0 L 124.0,788.5 L 123.0,787.5 L 122.0,786.5 L 120.5,786.0 L 119.0,785.5 L 118.0,784.5 L 117.0,783.5 L 115.5,783.0 L 114.5,782.0 L 113.0,781.5 L 112.0,780.5 L 111.0,779.5 L 109.5,779.0 L 108.5,778.0 L 107.5,777.0 L 106.0,776.5 L 105.0,775.5 L 104.0,774.5 L 102.5,774.0 L 101.5,773.0 L 100.5,772.0 L 99.0,771.5 L 98.0,770.5 L 97.0,769.5 L 96.0,768.5 L 95.0,767.5 L 94.0,766.5 L 92.5,766.0 L 91.5,765.0 L 90.5,764.0 L 89.5,763.0 L 88.0,762.5 L 87.0,761.5 L 86.0,760.5 L 85.0,759.5 L 84.0,758.5 L 83.0,757.5 L 82.0,756.5 L 81.0,755.5 L 80.0,754.5 L 79.0,753.5 L 78.0,752.5 L 77.0,751.5 L 76.0,750.5 L 75.0,749.5 L 74.0,748.5 L 73.0,747.5 L 72.0,746.5 L 71.0,745.5 L 70.0,744.5 L 69.0,743.5 L 68.5,742.0 L 67.5,741.0 L 66.5,740.0 L 65.5,739.0 L 64.5,738.0 L 63.5,737.0 L 62.5,736.0 L 61.5,735.0 L 61.0,733.5 L 60.0,732.5 L 59.0,731.5 L 58.0,730.5 L 57.5,729.0 L 56.5,728.0 L 55.5,727.0 L 54.5,726.0 L 53.5,725.0 L 53.0,723.5 L 52.0,722.5 L 51.0,721.5 L 50.5,720.0 L 49.5,719.0 L 48.5,718.0 L 48.0,716.5 L 47.0,715.5 L 46.5,714.0 L 45.5,713.0 L 44.5,712.0 L 44.0,710.5 L 43.0,709.5 L 42.5,708.0 L 41.5,707.0 L 40.5,706.0 L 40.0,704.5 L 39.5,703.0 L 38.5,702.0 L 37.5,701.0 L 37.0,699.5 L 36.5,698.0 L 35.5,697.0 L 34.5,696.0 L 34.0,694.5 L 33.5,693.0 L 32.5,692.0 L 32.0,690.5 L 31.5,689.0 L 30.5,688.0 L 30.0,686.5 L 29.5,685.0 L 28.5,684.0 L 28.0,682.5 L 27.0,681.5 L 26.5,680.0 L 25.5,679.0 L 25.5,677.0 L 24.5,676.0 L 24.0,674.5 L 23.5,673.0 L 22.5,672.0 L 22.0,670.5 L 21.5,669.0 L 21.0,667.5 L 20.5,666.0 L 19.5,665.0 L 19.0,663.5 L 18.5,662.0 L 18.0,660.5 L 17.5,659.0 L 16.5,658.0 L 16.0,656.5 L 15.5,655.0 L 15.0,653.5 L 14.5,652.0 L 14.0,650.5 L 13.5,649.0 L 13.0,647.5 L 12.5,646.0 L 12.0,644.5 L 11.5,643.0 L 11.0,641.5 L 10.5,640.0 L 10.5,638.0 L 9.5,637.0 L 9.5,635.0 L 8.5,634.0 L 8.5,632.0 L 8.0,630.5 L 7.5,629.0 L 7.5,627.0 L 6.5,626.0 L 6.5,624.0 L 6.0,622.5 L 5.5,621.0 L 5.5,619.0 L 5.0,617.5 L 4.5,616.0 L 4.5,614.0 L 3.5,613.0 L 3.5,611.0 L 3.5,609.0 L 3.0,607.5 L 2.5,606.0 L 2.5,604.0 L 2.5,602.0 L 2.0,600.5 L 1.5,599.0 L 1.5,597.0 L 1.5,595.0 L 1.5,593.0 L 0.5,592.0 L 0.5,590.0 L 0.5,588.0 L 0.0,586.5 Z"/>
    <path d="M 1029.0,823.5 L 1027.0,823.5 L 1025.0,823.5 L 1023.0,823.5 L 1021.0,823.5 L 1019.0,823.5 L 1017.0,823.5 L 1015.0,823.5 L 1013.0,823.5 L 1011.0,823.5 L 1009.0,823.5 L 1007.0,823.5 L 1006.0,822.5 L 1004.0,822.5 L 1002.0,822.5 L 1000.0,822.5 L 999.0,821.5 L 997.0,821.5 L 995.0,821.5 L 994.0,820.5 L 992.0,820.5 L 991.5,819.0 L 991.5,817.0 L 991.5,815.0 L 991.5,813.0 L 990.5,812.0 L 990.5,810.0 L 990.5,808.0 L 989.5,807.0 L 989.5,805.0 L 989.0,803.5 L 988.5,802.0 L 988.0,800.5 L 987.5,799.0 L 987.0,797.5 L 986.5,796.0 L 985.5,795.0 L 984.5,794.0 L 984.0,792.5 L 983.5,791.0 L 982.5,790.0 L 981.5,789.0 L 980.5,788.0 L 979.5,787.0 L 979.0,785.5 L 978.0,784.5 L 977.0,783.5 L 975.5,783.0 L 974.5,782.0 L 973.5,781.0 L 972.0,780.5 L 971.0,779.5 L 969.5,779.0 L 968.0,778.5 L 967.0,777.5 L 965.5,777.0 L 964.0,776.5 L 962.5,776.0 L 961.0,775.5 L 959.5,775.0 L 958.0,774.5 L 956.0,774.5 L 954.5,774.0 L 953.0,773.5 L 951.0,773.5 L 949.0,773.5 L 947.0,773.5 L 945.0,773.5 L 943.5,774.0 L 942.0,774.5 L 940.0,774.5 L 938.5,775.0 L 937.0,775.5 L 935.5,776.0 L 934.0,776.5 L 932.5,777.0 L 931.0,777.5 L 930.0,778.5 L 928.5,779.0 L 927.0,779.5 L 926.0,780.5 L 925.0,781.5 L 923.5,782.0 L 922.5,783.0 L 921.5,784.0 L 920.0,784.5 L 918.0,784.5 L 917.0,783.5 L 915.5,783.0 L 914.0,782.5 L 913.0,781.5 L 912.0,780.5 L 910.5,780.0 L 909.5,779.0 L 908.0,778.5 L 907.0,777.5 L 905.5,777.0 L 904.5,776.0 L 903.0,775.5 L 902.0,774.5 L 900.5,774.0 L 899.0,773.5 L 898.0,772.5 L 897.0,771.5 L 896.0,770.5 L 895.0,769.5 L 894.5,768.0 L 893.5,767.0 L 892.5,766.0 L 892.0,764.5 L 891.0,763.5 L 890.5,762.0 L 890.0,760.5 L 889.5,759.0 L 888.5,758.0 L 888.5,756.0 L 888.5,754.0 L 887.5,753.0 L 887.5,751.0 L 887.5,749.0 L 887.5,747.0 L 888.0,745.5 L 888.5,744.0 L 888.5,742.0 L 889.0,740.5 L 889.5,739.0 L 890.0,737.5 L 890.5,736.0 L 891.5,735.0 L 892.0,733.5 L 892.5,732.0 L 893.5,731.0 L 894.5,730.0 L 895.5,729.0 L 896.5,728.0 L 897.5,727.0 L 898.5,726.0 L 899.5,725.0 L 900.5,724.0 L 901.5,723.0 L 902.5,722.0 L 903.5,721.0 L 904.5,720.0 L 905.5,719.0 L 906.0,717.5 L 907.0,716.5 L 908.0,715.5 L 909.0,714.5 L 910.0,713.5 L 911.0,712.5 L 912.0,711.5 L 913.0,710.5 L 914.0,709.5 L 915.0,708.5 L 916.0,707.5 L 917.0,706.5 L 918.0,705.5 L 919.0,704.5 L 920.0,703.5 L 921.0,702.5 L 921.5,701.0 L 922.5,700.0 L 923.5,699.0 L 924.5,698.0 L 925.5,697.0 L 926.5,696.0 L 927.5,695.0 L 928.5,694.0 L 929.5,693.0 L 930.5,692.0 L 931.5,691.0 L 932.5,690.0 L 933.5,689.0 L 934.5,688.0 L 935.5,687.0 L 936.5,686.0 L 937.5,685.0 L 938.5,684.0 L 939.5,683.0 L 940.0,681.5 L 941.0,680.5 L 942.0,679.5 L 943.0,678.5 L 944.0,677.5 L 945.0,676.5 L 946.0,675.5 L 947.0,674.5 L 948.0,673.5 L 949.0,672.5 L 950.0,671.5 L 951.0,670.5 L 952.0,669.5 L 953.0,668.5 L 954.0,667.5 L 955.0,666.5 L 956.0,665.5 L 957.0,664.5 L 958.0,663.5 L 959.0,662.5 L 960.0,661.5 L 961.0,660.5 L 961.5,659.0 L 962.5,658.0 L 963.5,657.0 L 964.5,656.0 L 965.5,655.0 L 966.5,654.0 L 967.5,653.0 L 968.5,652.0 L 969.5,651.0 L 970.5,650.0 L 971.5,649.0 L 972.5,648.0 L 973.5,647.0 L 974.5,646.0 L 975.5,645.0 L 976.5,644.0 L 977.5,643.0 L 978.5,642.0 L 979.5,641.0 L 980.5,640.0 L 981.5,639.0 L 982.5,638.0 L 983.0,636.5 L 984.0,635.5 L 985.0,634.5 L 986.0,633.5 L 987.0,632.5 L 988.0,631.5 L 989.0,630.5 L 990.0,629.5 L 991.0,628.5 L 992.0,627.5 L 993.0,626.5 L 994.0,625.5 L 995.0,624.5 L 996.0,623.5 L 997.0,622.5 L 998.0,621.5 L 999.0,620.5 L 1000.0,619.5 L 1001.0,618.5 L 1002.0,617.5 L 1003.0,616.5 L 1004.0,615.5 L 1005.0,614.5 L 1006.0,613.5 L 1006.5,612.0 L 1007.5,611.0 L 1008.5,610.0 L 1009.5,609.0 L 1010.5,608.0 L 1011.5,607.0 L 1012.5,606.0 L 1013.5,605.0 L 1014.5,604.0 L 1015.5,603.0 L 1016.5,602.0 L 1017.5,601.0 L 1018.5,600.0 L 1019.5,599.0 L 1020.5,598.0 L 1021.5,597.0 L 1022.5,596.0 L 1023.5,595.0 L 1024.5,594.0 L 1025.5,593.0 L 1026.5,592.0 L 1027.5,591.0 L 1028.5,590.0 L 1029.0,588.5 L 1030.5,588.0 L 1031.5,587.0 L 1032.0,585.5 L 1033.0,584.5 L 1034.0,583.5 L 1035.0,582.5 L 1035.5,581.0 L 1036.5,580.0 L 1036.5,578.0 L 1037.5,577.0 L 1038.0,575.5 L 1038.5,574.0 L 1038.5,572.0 L 1038.5,570.0 L 1038.5,568.0 L 1038.5,566.0 L 1038.5,564.0 L 1037.5,563.0 L 1037.0,561.5 L 1036.5,560.0 L 1035.5,559.0 L 1035.0,557.5 L 1034.0,556.5 L 1033.5,555.0 L 1032.5,554.0 L 1031.5,553.0 L 1030.0,552.5 L 1029.0,551.5 L 1028.0,550.5 L 1026.5,550.0 L 1025.0,549.5 L 1024.0,548.5 L 1022.0,548.5 L 1020.5,548.0 L 1019.0,547.5 L 1017.0,547.5 L 1015.0,547.5 L 1014.0,546.5 L 1012.0,546.5 L 1010.0,546.5 L 1009.0,545.5 L 1007.0,545.5 L 1005.0,545.5 L 1003.0,545.5 L 1002.0,544.5 L 1000.0,544.5 L 998.0,544.5 L 996.5,544.0 L 995.0,543.5 L 993.0,543.5 L 991.5,543.0 L 990.0,542.5 L 988.0,542.5 L 986.5,542.0 L 985.0,541.5 L 983.0,541.5 L 981.0,541.5 L 979.5,541.0 L 978.0,540.5 L 976.0,540.5 L 974.5,540.0 L 973.0,539.5 L 971.0,539.5 L 969.0,539.5 L 968.0,538.5 L 966.0,538.5 L 964.0,538.5 L 963.0,537.5 L 961.0,537.5 L 959.0,537.5 L 957.5,537.0 L 956.0,536.5 L 954.0,536.5 L 952.0,536.5 L 951.0,535.5 L 949.0,535.5 L 947.0,535.5 L 946.0,534.5 L 944.0,534.5 L 942.0,534.5 L 940.5,534.0 L 939.0,533.5 L 937.0,533.5 L 935.0,533.5 L 934.0,532.5 L 932.0,532.5 L 930.0,532.5 L 929.0,531.5 L 927.0,531.5 L 925.0,531.5 L 923.5,531.0 L 922.0,530.5 L 920.0,530.5 L 918.5,530.0 L 917.0,529.5 L 915.0,529.5 L 913.0,529.5 L 912.0,528.5 L 910.0,528.5 L 908.0,528.5 L 907.0,527.5 L 905.0,527.5 L 903.0,527.5 L 901.5,527.0 L 900.0,526.5 L 898.0,526.5 L 896.0,526.5 L 895.0,525.5 L 893.0,525.5 L 891.0,525.5 L 890.0,524.5 L 888.0,524.5 L 886.0,524.5 L 884.5,524.0 L 883.0,523.5 L 881.0,523.5 L 879.5,523.0 L 878.0,522.5 L 876.0,522.5 L 874.0,522.5 L 873.0,521.5 L 871.0,521.5 L 869.0,521.5 L 867.5,521.0 L 866.0,520.5 L 864.0,520.5 L 862.5,520.0 L 861.0,519.5 L 859.0,519.5 L 857.0,519.5 L 856.0,518.5 L 854.0,518.5 L 852.0,518.5 L 850.5,518.0 L 849.0,517.5 L 847.0,517.5 L 845.0,517.5 L 844.0,516.5 L 842.0,516.5 L 840.0,516.5 L 838.5,516.0 L 837.0,515.5 L 835.0,515.5 L 833.5,515.0 L 832.0,514.5 L 830.0,514.5 L 828.5,514.0 L 827.0,513.5 L 825.0,513.5 L 824.0,512.5 L 822.0,512.5 L 820.5,512.0 L 819.0,511.5 L 818.0,510.5 L 816.0,510.5 L 815.0,509.5 L 814.0,508.5 L 812.5,508.0 L 811.0,507.5 L 810.0,506.5 L 809.0,505.5 L 807.5,505.0 L 806.5,504.0 L 805.5,503.0 L 804.5,502.0 L 803.5,501.0 L 802.5,500.0 L 801.5,499.0 L 801.0,497.5 L 800.0,496.5 L 799.0,495.5 L 798.5,494.0 L 797.5,493.0 L 797.0,491.5 L 796.5,490.0 L 795.5,489.0 L 795.0,487.5 L 794.5,486.0 L 794.0,484.5 L 793.5,483.0 L 793.5,481.0 L 792.5,480.0 L 792.5,478.0 L 792.5,476.0 L 792.0,474.5 L 791.5,473.0 L 791.5,471.0 L 791.5,469.0 L 792.5,468.0 L 792.5,466.0 L 792.5,464.0 L 793.5,463.0 L 793.5,461.0 L 794.5,460.0 L 794.5,458.0 L 795.5,457.0 L 796.0,455.5 L 796.5,454.0 L 797.5,453.0 L 798.0,451.5 L 799.0,450.5 L 799.5,449.0 L 800.5,448.0 L 801.5,447.0 L 802.0,445.5 L 803.0,444.5 L 803.5,443.0 L 804.5,442.0 L 805.5,441.0 L 806.5,440.0 L 807.0,438.5 L 808.0,437.5 L 808.5,436.0 L 809.5,435.0 L 810.5,434.0 L 811.0,432.5 L 811.5,431.0 L 812.5,430.0 L 813.5,429.0 L 814.0,427.5 L 815.0,426.5 L 816.0,425.5 L 816.5,424.0 L 817.5,423.0 L 818.5,422.0 L 819.5,421.0 L 820.0,419.5 L 820.5,418.0 L 821.5,417.0 L 822.5,416.0 L 823.5,415.0 L 824.0,413.5 L 825.0,412.5 L 825.5,411.0 L 827.0,410.5 L 829.0,410.5 L 831.0,410.5 L 832.0,411.5 L 834.0,411.5 L 836.0,411.5 L 837.5,412.0 L 839.0,412.5 L 841.0,412.5 L 843.0,412.5 L 845.0,412.5 L 846.5,412.0 L 848.0,411.5 L 850.0,411.5 L 851.5,411.0 L 853.0,410.5 L 855.0,410.5 L 856.0,409.5 L 857.5,409.0 L 859.0,408.5 L 860.5,408.0 L 862.0,407.5 L 863.0,406.5 L 864.5,406.0 L 865.5,405.0 L 867.0,404.5 L 868.0,403.5 L 869.0,402.5 L 870.0,401.5 L 871.0,400.5 L 872.0,399.5 L 873.0,398.5 L 874.0,397.5 L 875.0,396.5 L 876.0,395.5 L 876.5,394.0 L 877.5,393.0 L 878.5,392.0 L 879.0,390.5 L 879.5,389.0 L 880.5,388.0 L 881.0,386.5 L 881.5,385.0 L 882.0,383.5 L 882.5,382.0 L 882.5,380.0 L 883.5,379.0 L 883.5,377.0 L 883.5,375.0 L 884.5,374.0 L 884.5,372.0 L 884.5,370.0 L 884.5,368.0 L 884.5,366.0 L 883.5,365.0 L 883.5,363.0 L 883.5,361.0 L 882.5,360.0 L 882.5,358.0 L 882.0,356.5 L 881.5,355.0 L 881.0,353.5 L 880.5,352.0 L 879.5,351.0 L 879.0,349.5 L 878.5,348.0 L 877.5,347.0 L 876.5,346.0 L 876.0,344.5 L 875.0,343.5 L 874.0,342.5 L 873.5,341.0 L 874.5,340.0 L 875.5,339.0 L 876.0,337.5 L 877.0,336.5 L 877.5,335.0 L 878.5,334.0 L 879.5,333.0 L 880.0,331.5 L 881.0,330.5 L 881.5,329.0 L 882.5,328.0 L 883.5,327.0 L 884.5,326.0 L 885.5,325.0 L 886.5,324.0 L 887.5,323.0 L 889.0,322.5 L 890.0,321.5 L 891.0,320.5 L 892.0,319.5 L 893.5,319.0 L 894.5,318.0 L 895.5,317.0 L 897.0,316.5 L 898.0,315.5 L 899.5,315.0 L 901.0,314.5 L 902.0,313.5 L 904.0,313.5 L 905.0,312.5 L 906.5,312.0 L 908.0,311.5 L 909.0,310.5 L 911.0,310.5 L 912.0,309.5 L 913.5,309.0 L 915.0,308.5 L 916.0,307.5 L 918.0,307.5 L 919.0,306.5 L 921.0,306.5 L 922.0,305.5 L 924.0,305.5 L 925.0,304.5 L 927.0,304.5 L 928.0,303.5 L 930.0,303.5 L 931.0,302.5 L 933.0,302.5 L 934.0,301.5 L 936.0,301.5 L 937.0,300.5 L 939.0,300.5 L 940.0,299.5 L 942.0,299.5 L 943.5,299.0 L 945.0,298.5 L 947.0,298.5 L 948.0,297.5 L 950.0,297.5 L 951.5,297.0 L 953.0,296.5 L 955.0,296.5 L 956.5,296.0 L 958.0,295.5 L 960.0,295.5 L 961.5,295.0 L 963.0,294.5 L 965.0,294.5 L 967.0,294.5 L 968.0,293.5 L 970.0,293.5 L 972.0,293.5 L 974.0,293.5 L 975.5,293.0 L 977.0,292.5 L 979.0,292.5 L 981.0,292.5 L 983.0,292.5 L 985.0,292.5 L 986.0,291.5 L 988.0,291.5 L 990.0,291.5 L 992.0,291.5 L 994.0,291.5 L 996.0,291.5 L 998.0,291.5 L 1000.0,291.5 L 1002.0,291.5 L 1004.0,291.5 L 1006.0,291.5 L 1008.0,291.5 L 1010.0,291.5 L 1012.0,291.5 L 1014.0,291.5 L 1016.0,291.5 L 1018.0,291.5 L 1019.0,292.5 L 1021.0,292.5 L 1023.0,292.5 L 1025.0,292.5 L 1027.0,292.5 L 1028.5,293.0 L 1030.0,293.5 L 1032.0,293.5 L 1034.0,293.5 L 1035.5,294.0 L 1037.0,294.5 L 1039.0,294.5 L 1040.5,295.0 L 1042.0,295.5 L 1044.0,295.5 L 1045.5,296.0 L 1047.0,296.5 L 1049.0,296.5 L 1050.5,297.0 L 1052.0,297.5 L 1054.0,297.5 L 1055.0,298.5 L 1057.0,298.5 L 1058.5,299.0 L 1060.0,299.5 L 1061.5,300.0 L 1063.0,300.5 L 1065.0,300.5 L 1066.0,301.5 L 1068.0,301.5 L 1069.0,302.5 L 1071.0,302.5 L 1072.0,303.5 L 1074.0,303.5 L 1075.0,304.5 L 1077.0,304.5 L 1078.0,305.5 L 1080.0,305.5 L 1081.0,306.5 L 1082.5,307.0 L 1084.0,307.5 L 1085.5,308.0 L 1087.0,308.5 L 1088.0,309.5 L 1090.0,309.5 L 1091.0,310.5 L 1092.5,311.0 L 1094.0,311.5 L 1095.0,312.5 L 1097.0,312.5 L 1098.0,313.5 L 1099.5,314.0 L 1101.0,314.5 L 1102.0,315.5 L 1103.5,316.0 L 1105.0,316.5 L 1106.0,317.5 L 1107.5,318.0 L 1108.5,319.0 L 1110.0,319.5 L 1111.0,320.5 L 1112.5,321.0 L 1114.0,321.5 L 1115.0,322.5 L 1116.5,323.0 L 1118.0,323.5 L 1119.0,324.5 L 1120.0,325.5 L 1121.5,326.0 L 1123.0,326.5 L 1124.0,327.5 L 1125.0,328.5 L 1126.5,329.0 L 1128.0,329.5 L 1129.0,330.5 L 1130.0,331.5 L 1131.5,332.0 L 1132.5,333.0 L 1134.0,333.5 L 1135.0,334.5 L 1136.0,335.5 L 1137.0,336.5 L 1138.5,337.0 L 1139.5,338.0 L 1141.0,338.5 L 1142.0,339.5 L 1143.0,340.5 L 1144.0,341.5 L 1145.5,342.0 L 1146.5,343.0 L 1147.5,344.0 L 1148.5,345.0 L 1150.0,345.5 L 1151.0,346.5 L 1152.0,347.5 L 1153.0,348.5 L 1154.0,349.5 L 1155.5,350.0 L 1156.5,351.0 L 1157.5,352.0 L 1158.5,353.0 L 1159.5,354.0 L 1160.5,355.0 L 1161.5,356.0 L 1162.5,357.0 L 1164.0,357.5 L 1165.0,358.5 L 1166.0,359.5 L 1167.0,360.5 L 1168.0,361.5 L 1169.0,362.5 L 1170.0,363.5 L 1171.0,364.5 L 1172.0,365.5 L 1173.0,366.5 L 1174.0,367.5 L 1175.0,368.5 L 1176.0,369.5 L 1177.0,370.5 L 1178.0,371.5 L 1179.0,372.5 L 1180.0,373.5 L 1181.0,374.5 L 1181.5,376.0 L 1182.5,377.0 L 1183.5,378.0 L 1184.5,379.0 L 1185.5,380.0 L 1186.5,381.0 L 1187.5,382.0 L 1188.0,383.5 L 1189.0,384.5 L 1190.0,385.5 L 1191.0,386.5 L 1192.0,387.5 L 1193.0,388.5 L 1193.5,390.0 L 1194.5,391.0 L 1195.5,392.0 L 1196.5,393.0 L 1197.0,394.5 L 1198.0,395.5 L 1199.0,396.5 L 1199.5,398.0 L 1200.5,399.0 L 1201.5,400.0 L 1202.0,401.5 L 1203.0,402.5 L 1204.0,403.5 L 1204.5,405.0 L 1205.5,406.0 L 1206.0,407.5 L 1207.0,408.5 L 1207.5,410.0 L 1208.5,411.0 L 1209.5,412.0 L 1210.0,413.5 L 1211.0,414.5 L 1211.5,416.0 L 1212.5,417.0 L 1213.5,418.0 L 1214.0,419.5 L 1214.5,421.0 L 1215.5,422.0 L 1216.0,423.5 L 1216.5,425.0 L 1217.5,426.0 L 1218.0,427.5 L 1219.0,428.5 L 1219.5,430.0 L 1220.5,431.0 L 1221.0,432.5 L 1221.5,434.0 L 1222.5,435.0 L 1223.0,436.5 L 1223.5,438.0 L 1224.5,439.0 L 1225.0,440.5 L 1225.5,442.0 L 1226.5,443.0 L 1227.0,444.5 L 1227.5,446.0 L 1228.0,447.5 L 1228.5,449.0 L 1229.5,450.0 L 1230.0,451.5 L 1230.5,453.0 L 1231.0,454.5 L 1231.5,456.0 L 1232.5,457.0 L 1232.5,459.0 L 1233.5,460.0 L 1234.0,461.5 L 1234.5,463.0 L 1235.0,464.5 L 1235.5,466.0 L 1236.0,467.5 L 1236.5,469.0 L 1237.0,470.5 L 1237.5,472.0 L 1238.0,473.5 L 1238.5,475.0 L 1239.0,476.5 L 1239.5,478.0 L 1239.5,480.0 L 1240.5,481.0 L 1240.5,483.0 L 1241.5,484.0 L 1241.5,486.0 L 1242.0,487.5 L 1242.5,489.0 L 1242.5,491.0 L 1243.5,492.0 L 1243.5,494.0 L 1244.0,495.5 L 1244.5,497.0 L 1244.5,499.0 L 1245.5,500.0 L 1245.5,502.0 L 1245.5,504.0 L 1246.5,505.0 L 1246.5,507.0 L 1246.5,509.0 L 1247.0,510.5 L 1247.5,512.0 L 1247.5,514.0 L 1247.5,516.0 L 1248.5,517.0 L 1248.5,519.0 L 1248.5,521.0 L 1248.5,523.0 L 1249.5,524.0 L 1249.5,526.0 L 1249.5,528.0 L 1249.5,530.0 L 1249.5,532.0 L 1250.0,533.5 L 1250.5,535.0 L 1250.5,537.0 L 1250.5,539.0 L 1250.5,541.0 L 1250.5,543.0 L 1250.5,545.0 L 1250.5,547.0 L 1250.5,549.0 L 1250.5,551.0 L 1250.5,553.0 L 1250.5,555.0 L 1250.5,557.0 L 1250.5,559.0 L 1250.5,561.0 L 1250.5,563.0 L 1250.5,565.0 L 1250.5,567.0 L 1250.5,569.0 L 1250.5,571.0 L 1250.5,573.0 L 1250.5,575.0 L 1250.5,577.0 L 1250.5,579.0 L 1250.5,581.0 L 1250.5,583.0 L 1250.5,585.0 L 1250.5,587.0 L 1249.5,588.0 L 1249.5,590.0 L 1249.5,592.0 L 1249.5,594.0 L 1249.5,596.0 L 1248.5,597.0 L 1248.5,599.0 L 1248.5,601.0 L 1248.0,602.5 L 1247.5,604.0 L 1247.5,606.0 L 1247.5,608.0 L 1247.0,609.5 L 1246.5,611.0 L 1246.5,613.0 L 1246.0,614.5 L 1245.5,616.0 L 1245.5,618.0 L 1245.0,619.5 L 1244.5,621.0 L 1244.5,623.0 L 1244.0,624.5 L 1243.5,626.0 L 1243.5,628.0 L 1242.5,629.0 L 1242.5,631.0 L 1242.0,632.5 L 1241.5,634.0 L 1241.0,635.5 L 1240.5,637.0 L 1240.0,638.5 L 1239.5,640.0 L 1239.5,642.0 L 1238.5,643.0 L 1238.5,645.0 L 1237.5,646.0 L 1237.5,648.0 L 1236.5,649.0 L 1236.5,651.0 L 1235.5,652.0 L 1235.5,654.0 L 1234.5,655.0 L 1234.5,657.0 L 1233.5,658.0 L 1233.0,659.5 L 1232.5,661.0 L 1232.0,662.5 L 1231.5,664.0 L 1231.0,665.5 L 1230.5,667.0 L 1229.5,668.0 L 1229.5,670.0 L 1228.5,671.0 L 1228.0,672.5 L 1227.5,674.0 L 1226.5,675.0 L 1226.0,676.5 L 1225.5,678.0 L 1224.5,679.0 L 1224.0,680.5 L 1223.5,682.0 L 1222.5,683.0 L 1222.0,684.5 L 1221.5,686.0 L 1220.5,687.0 L 1220.0,688.5 L 1219.5,690.0 L 1218.5,691.0 L 1218.0,692.5 L 1217.5,694.0 L 1216.5,695.0 L 1216.0,696.5 L 1215.0,697.5 L 1214.5,699.0 L 1213.5,700.0 L 1213.0,701.5 L 1212.0,702.5 L 1211.5,704.0 L 1210.5,705.0 L 1210.0,706.5 L 1209.0,707.5 L 1208.5,709.0 L 1207.5,710.0 L 1206.5,711.0 L 1206.0,712.5 L 1205.0,713.5 L 1204.5,715.0 L 1203.5,716.0 L 1202.5,717.0 L 1202.0,718.5 L 1201.0,719.5 L 1200.0,720.5 L 1199.5,722.0 L 1198.5,723.0 L 1197.5,724.0 L 1197.0,725.5 L 1196.0,726.5 L 1195.0,727.5 L 1194.5,729.0 L 1193.5,730.0 L 1192.5,731.0 L 1191.5,732.0 L 1190.5,733.0 L 1189.5,734.0 L 1189.0,735.5 L 1188.0,736.5 L 1187.0,737.5 L 1186.0,738.5 L 1185.0,739.5 L 1184.5,741.0 L 1183.5,742.0 L 1182.5,743.0 L 1181.5,744.0 L 1180.5,745.0 L 1179.5,746.0 L 1178.5,747.0 L 1177.5,748.0 L 1176.5,749.0 L 1175.5,750.0 L 1174.5,751.0 L 1173.5,752.0 L 1172.5,753.0 L 1171.5,754.0 L 1170.5,755.0 L 1169.5,756.0 L 1168.5,757.0 L 1167.5,758.0 L 1166.5,759.0 L 1165.5,760.0 L 1164.5,761.0 L 1163.5,762.0 L 1162.5,763.0 L 1161.5,764.0 L 1160.5,765.0 L 1159.0,765.5 L 1158.0,766.5 L 1157.0,767.5 L 1156.0,768.5 L 1155.0,769.5 L 1154.0,770.5 L 1152.5,771.0 L 1151.5,772.0 L 1150.5,773.0 L 1149.0,773.5 L 1148.0,774.5 L 1147.0,775.5 L 1146.0,776.5 L 1145.0,777.5 L 1143.5,778.0 L 1142.5,779.0 L 1141.5,780.0 L 1140.0,780.5 L 1139.0,781.5 L 1138.0,782.5 L 1136.5,783.0 L 1135.5,784.0 L 1134.0,784.5 L 1133.0,785.5 L 1132.0,786.5 L 1130.5,787.0 L 1129.5,788.0 L 1128.0,788.5 L 1127.0,789.5 L 1125.5,790.0 L 1124.5,791.0 L 1123.0,791.5 L 1122.0,792.5 L 1120.5,793.0 L 1119.0,793.5 L 1118.0,794.5 L 1117.0,795.5 L 1115.5,796.0 L 1114.0,796.5 L 1113.0,797.5 L 1111.5,798.0 L 1110.0,798.5 L 1109.0,799.5 L 1107.5,800.0 L 1106.0,800.5 L 1105.0,801.5 L 1103.5,802.0 L 1102.0,802.5 L 1101.0,803.5 L 1099.5,804.0 L 1098.0,804.5 L 1096.5,805.0 L 1095.0,805.5 L 1094.0,806.5 L 1092.5,807.0 L 1091.0,807.5 L 1089.5,808.0 L 1088.0,808.5 L 1087.0,809.5 L 1085.0,809.5 L 1084.0,810.5 L 1082.0,810.5 L 1081.0,811.5 L 1079.0,811.5 L 1078.0,812.5 L 1076.5,813.0 L 1075.0,813.5 L 1073.5,814.0 L 1072.0,814.5 L 1070.0,814.5 L 1069.0,815.5 L 1067.0,815.5 L 1066.0,816.5 L 1064.0,816.5 L 1062.5,817.0 L 1061.0,817.5 L 1059.0,817.5 L 1058.0,818.5 L 1056.0,818.5 L 1054.5,819.0 L 1053.0,819.5 L 1051.0,819.5 L 1049.5,820.0 L 1048.0,820.5 L 1046.0,820.5 L 1044.5,821.0 L 1043.0,821.5 L 1041.0,821.5 L 1039.0,821.5 L 1037.5,822.0 L 1036.0,822.5 L 1034.0,822.5 L 1032.0,822.5 L 1030.0,822.5 L 1029.0,823.5 Z"/>
    <path d="M 851.0,1250.5 L 849.0,1250.5 L 847.0,1250.5 L 845.0,1250.5 L 843.0,1250.5 L 841.0,1250.5 L 839.0,1250.5 L 837.0,1250.5 L 835.0,1250.5 L 833.0,1250.5 L 831.0,1250.5 L 829.0,1250.5 L 827.0,1250.5 L 825.0,1250.5 L 823.0,1250.5 L 821.0,1250.5 L 819.0,1250.5 L 817.0,1250.5 L 815.0,1250.5 L 813.5,1250.0 L 812.0,1249.5 L 810.0,1249.5 L 808.0,1249.5 L 806.0,1249.5 L 805.0,1248.5 L 803.0,1248.5 L 801.0,1248.5 L 799.0,1248.5 L 798.0,1247.5 L 796.0,1247.5 L 794.0,1247.5 L 792.5,1247.0 L 791.0,1246.5 L 789.0,1246.5 L 787.0,1246.5 L 786.0,1245.5 L 784.0,1245.5 L 782.5,1245.0 L 781.0,1244.5 L 779.0,1244.5 L 777.5,1244.0 L 776.0,1243.5 L 774.0,1243.5 L 773.0,1242.5 L 771.0,1242.5 L 770.0,1241.5 L 768.0,1241.5 L 766.5,1241.0 L 765.0,1240.5 L 763.5,1240.0 L 762.0,1239.5 L 760.5,1239.0 L 759.0,1238.5 L 757.5,1238.0 L 756.0,1237.5 L 754.5,1237.0 L 753.0,1236.5 L 751.5,1236.0 L 750.0,1235.5 L 749.0,1234.5 L 747.5,1234.0 L 746.0,1233.5 L 744.5,1233.0 L 743.0,1232.5 L 742.0,1231.5 L 740.0,1231.5 L 739.0,1230.5 L 737.5,1230.0 L 736.0,1229.5 L 735.0,1228.5 L 733.5,1228.0 L 732.0,1227.5 L 730.5,1227.0 L 729.5,1226.0 L 728.0,1225.5 L 727.0,1224.5 L 725.5,1224.0 L 724.0,1223.5 L 723.0,1222.5 L 721.5,1222.0 L 720.0,1221.5 L 719.0,1220.5 L 717.5,1220.0 L 716.5,1219.0 L 715.0,1218.5 L 714.0,1217.5 L 712.5,1217.0 L 711.5,1216.0 L 710.0,1215.5 L 709.0,1214.5 L 707.5,1214.0 L 706.5,1213.0 L 705.0,1212.5 L 704.0,1211.5 L 703.0,1210.5 L 701.5,1210.0 L 700.5,1209.0 L 699.0,1208.5 L 698.0,1207.5 L 697.0,1206.5 L 696.0,1205.5 L 694.5,1205.0 L 693.5,1204.0 L 692.5,1203.0 L 691.0,1202.5 L 690.0,1201.5 L 689.0,1200.5 L 688.0,1199.5 L 687.0,1198.5 L 685.5,1198.0 L 684.5,1197.0 L 683.5,1196.0 L 682.5,1195.0 L 681.0,1194.5 L 680.0,1193.5 L 679.0,1192.5 L 678.0,1191.5 L 677.0,1190.5 L 676.0,1189.5 L 675.0,1188.5 L 674.0,1187.5 L 673.0,1186.5 L 672.0,1185.5 L 671.0,1184.5 L 670.0,1183.5 L 669.0,1182.5 L 668.0,1181.5 L 667.0,1180.5 L 666.0,1179.5 L 665.0,1178.5 L 664.0,1177.5 L 663.0,1176.5 L 662.0,1175.5 L 661.0,1174.5 L 660.0,1173.5 L 659.0,1172.5 L 658.0,1171.5 L 657.5,1170.0 L 656.5,1169.0 L 655.5,1168.0 L 654.5,1167.0 L 653.5,1166.0 L 652.5,1165.0 L 651.5,1164.0 L 651.0,1162.5 L 650.0,1161.5 L 649.0,1160.5 L 648.5,1159.0 L 647.5,1158.0 L 646.5,1157.0 L 645.5,1156.0 L 645.0,1154.5 L 644.0,1153.5 L 643.5,1152.0 L 642.5,1151.0 L 641.5,1150.0 L 641.0,1148.5 L 640.5,1147.0 L 639.5,1146.0 L 639.0,1144.5 L 638.5,1143.0 L 637.5,1142.0 L 637.0,1140.5 L 636.5,1139.0 L 635.5,1138.0 L 635.0,1136.5 L 634.5,1135.0 L 634.0,1133.5 L 633.5,1132.0 L 633.0,1130.5 L 632.5,1129.0 L 632.5,1127.0 L 632.0,1125.5 L 631.5,1124.0 L 631.5,1122.0 L 631.0,1120.5 L 630.5,1119.0 L 630.5,1117.0 L 630.5,1115.0 L 630.5,1113.0 L 630.5,1111.0 L 630.5,1109.0 L 630.5,1107.0 L 630.5,1105.0 L 630.5,1103.0 L 630.5,1101.0 L 630.5,1099.0 L 631.5,1098.0 L 633.0,1097.5 L 634.5,1097.0 L 636.0,1096.5 L 637.5,1096.0 L 639.0,1095.5 L 640.0,1094.5 L 641.5,1094.0 L 643.0,1093.5 L 644.0,1092.5 L 645.5,1092.0 L 646.5,1091.0 L 648.0,1090.5 L 649.0,1089.5 L 650.0,1088.5 L 651.0,1087.5 L 652.0,1086.5 L 653.0,1085.5 L 654.0,1084.5 L 655.0,1083.5 L 655.5,1082.0 L 656.5,1081.0 L 657.5,1080.0 L 658.5,1079.0 L 659.0,1077.5 L 659.5,1076.0 L 660.5,1075.0 L 661.0,1073.5 L 661.5,1072.0 L 662.0,1070.5 L 662.5,1069.0 L 662.5,1067.0 L 663.5,1066.0 L 663.5,1064.0 L 663.5,1062.0 L 664.0,1060.5 L 664.5,1059.0 L 664.5,1057.0 L 664.5,1055.0 L 664.0,1053.5 L 663.5,1052.0 L 663.5,1050.0 L 663.0,1048.5 L 662.5,1047.0 L 662.5,1045.0 L 661.5,1044.0 L 661.0,1042.5 L 660.5,1041.0 L 660.0,1039.5 L 659.5,1038.0 L 658.5,1037.0 L 657.5,1036.0 L 657.0,1034.5 L 656.5,1033.0 L 655.5,1032.0 L 654.5,1031.0 L 653.5,1030.0 L 652.5,1029.0 L 651.5,1028.0 L 650.5,1027.0 L 649.5,1026.0 L 648.0,1025.5 L 647.0,1024.5 L 646.0,1023.5 L 644.5,1023.0 L 643.0,1022.5 L 642.0,1021.5 L 640.5,1021.0 L 639.0,1020.5 L 638.0,1019.5 L 636.5,1019.0 L 635.0,1018.5 L 634.0,1017.5 L 633.5,1016.0 L 633.5,1014.0 L 633.5,1012.0 L 633.5,1010.0 L 633.5,1008.0 L 633.5,1006.0 L 633.5,1004.0 L 633.5,1002.0 L 633.5,1000.0 L 634.5,999.0 L 634.5,997.0 L 634.5,995.0 L 634.5,993.0 L 635.5,992.0 L 635.5,990.0 L 636.5,989.0 L 637.0,987.5 L 637.5,986.0 L 638.5,985.0 L 639.0,983.5 L 640.0,982.5 L 640.5,981.0 L 641.5,980.0 L 642.5,979.0 L 643.5,978.0 L 645.0,977.5 L 646.0,976.5 L 647.0,975.5 L 648.5,975.0 L 650.0,974.5 L 651.0,973.5 L 652.5,973.0 L 654.0,972.5 L 656.0,972.5 L 657.0,971.5 L 659.0,971.5 L 661.0,971.5 L 663.0,971.5 L 665.0,971.5 L 666.0,972.5 L 668.0,972.5 L 669.5,973.0 L 671.0,973.5 L 672.0,974.5 L 673.5,975.0 L 675.0,975.5 L 676.0,976.5 L 677.5,977.0 L 678.5,978.0 L 680.0,978.5 L 681.0,979.5 L 682.5,980.0 L 684.0,980.5 L 685.0,981.5 L 686.5,982.0 L 687.5,983.0 L 689.0,983.5 L 690.0,984.5 L 691.5,985.0 L 693.0,985.5 L 694.0,986.5 L 695.5,987.0 L 697.0,987.5 L 698.0,988.5 L 699.0,989.5 L 700.5,990.0 L 702.0,990.5 L 703.0,991.5 L 704.5,992.0 L 705.5,993.0 L 707.0,993.5 L 708.0,994.5 L 709.5,995.0 L 711.0,995.5 L 712.0,996.5 L 713.5,997.0 L 715.0,997.5 L 716.0,998.5 L 717.5,999.0 L 718.5,1000.0 L 720.0,1000.5 L 721.0,1001.5 L 722.5,1002.0 L 724.0,1002.5 L 725.0,1003.5 L 726.5,1004.0 L 728.0,1004.5 L 729.0,1005.5 L 730.5,1006.0 L 731.5,1007.0 L 733.0,1007.5 L 734.0,1008.5 L 735.5,1009.0 L 737.0,1009.5 L 738.0,1010.5 L 739.0,1011.5 L 740.5,1012.0 L 742.0,1012.5 L 743.0,1013.5 L 744.5,1014.0 L 746.0,1014.5 L 747.0,1015.5 L 748.5,1016.0 L 750.0,1016.5 L 751.0,1017.5 L 752.0,1018.5 L 753.5,1019.0 L 755.0,1019.5 L 756.0,1020.5 L 757.5,1021.0 L 759.0,1021.5 L 760.0,1022.5 L 761.5,1023.0 L 762.5,1024.0 L 764.0,1024.5 L 765.0,1025.5 L 766.5,1026.0 L 768.0,1026.5 L 769.0,1027.5 L 770.0,1028.5 L 771.5,1029.0 L 773.0,1029.5 L 774.0,1030.5 L 775.5,1031.0 L 777.0,1031.5 L 778.0,1032.5 L 779.5,1033.0 L 780.5,1034.0 L 782.0,1034.5 L 783.0,1035.5 L 784.5,1036.0 L 786.0,1036.5 L 787.0,1037.5 L 788.5,1038.0 L 790.0,1038.5 L 791.0,1039.5 L 792.0,1040.5 L 793.5,1041.0 L 795.0,1041.5 L 796.0,1042.5 L 797.5,1043.0 L 799.0,1043.5 L 800.0,1044.5 L 801.5,1045.0 L 802.5,1046.0 L 804.0,1046.5 L 805.0,1047.5 L 806.5,1048.0 L 808.0,1048.5 L 809.0,1049.5 L 810.5,1050.0 L 811.5,1051.0 L 813.0,1051.5 L 814.0,1052.5 L 815.5,1053.0 L 817.0,1053.5 L 818.0,1054.5 L 819.5,1055.0 L 821.0,1055.5 L 822.0,1056.5 L 823.5,1057.0 L 824.5,1058.0 L 826.0,1058.5 L 827.0,1059.5 L 828.5,1060.0 L 830.0,1060.5 L 831.0,1061.5 L 832.5,1062.0 L 834.0,1062.5 L 835.0,1063.5 L 836.5,1064.0 L 837.5,1065.0 L 839.0,1065.5 L 840.0,1066.5 L 841.5,1067.0 L 842.5,1068.0 L 844.0,1068.5 L 845.0,1069.5 L 846.5,1070.0 L 848.0,1070.5 L 849.0,1071.5 L 850.5,1072.0 L 852.0,1072.5 L 853.5,1073.0 L 855.0,1073.5 L 857.0,1073.5 L 858.0,1074.5 L 860.0,1074.5 L 862.0,1074.5 L 863.5,1074.0 L 865.0,1073.5 L 867.0,1073.5 L 868.5,1073.0 L 870.0,1072.5 L 871.5,1072.0 L 873.0,1071.5 L 874.0,1070.5 L 875.0,1069.5 L 876.5,1069.0 L 877.5,1068.0 L 878.5,1067.0 L 879.5,1066.0 L 880.5,1065.0 L 881.5,1064.0 L 882.0,1062.5 L 882.5,1061.0 L 883.5,1060.0 L 884.0,1058.5 L 884.5,1057.0 L 885.5,1056.0 L 885.5,1054.0 L 885.5,1052.0 L 885.5,1050.0 L 885.5,1048.0 L 885.5,1046.0 L 885.5,1044.0 L 885.0,1042.5 L 884.5,1041.0 L 884.5,1039.0 L 884.5,1037.0 L 883.5,1036.0 L 883.5,1034.0 L 883.5,1032.0 L 883.0,1030.5 L 882.5,1029.0 L 882.5,1027.0 L 882.5,1025.0 L 881.5,1024.0 L 881.5,1022.0 L 881.5,1020.0 L 880.5,1019.0 L 880.5,1017.0 L 880.5,1015.0 L 880.0,1013.5 L 879.5,1012.0 L 879.5,1010.0 L 879.5,1008.0 L 878.5,1007.0 L 878.5,1005.0 L 878.5,1003.0 L 878.0,1001.5 L 877.5,1000.0 L 877.5,998.0 L 877.5,996.0 L 876.5,995.0 L 876.5,993.0 L 876.5,991.0 L 875.5,990.0 L 875.5,988.0 L 875.5,986.0 L 875.0,984.5 L 874.5,983.0 L 874.5,981.0 L 874.5,979.0 L 873.5,978.0 L 873.5,976.0 L 873.5,974.0 L 873.0,972.5 L 872.5,971.0 L 872.5,969.0 L 872.0,967.5 L 871.5,966.0 L 871.5,964.0 L 871.5,962.0 L 870.5,961.0 L 870.5,959.0 L 870.5,957.0 L 870.5,955.0 L 869.5,954.0 L 869.5,952.0 L 869.5,950.0 L 868.5,949.0 L 868.5,947.0 L 868.5,945.0 L 868.0,943.5 L 867.5,942.0 L 867.5,940.0 L 867.5,938.0 L 867.0,936.5 L 866.5,935.0 L 866.5,933.0 L 866.5,931.0 L 865.5,930.0 L 865.5,928.0 L 865.5,926.0 L 865.0,924.5 L 864.5,923.0 L 864.5,921.0 L 864.0,919.5 L 863.5,918.0 L 863.5,916.0 L 863.5,914.0 L 862.5,913.0 L 862.5,911.0 L 862.5,909.0 L 862.0,907.5 L 861.5,906.0 L 861.5,904.0 L 861.5,902.0 L 860.5,901.0 L 860.5,899.0 L 860.5,897.0 L 859.5,896.0 L 859.5,894.0 L 859.5,892.0 L 859.5,890.0 L 858.5,889.0 L 858.5,887.0 L 858.5,885.0 L 857.5,884.0 L 857.5,882.0 L 857.5,880.0 L 857.0,878.5 L 856.5,877.0 L 856.5,875.0 L 856.5,873.0 L 855.5,872.0 L 855.5,870.0 L 855.5,868.0 L 855.0,866.5 L 854.5,865.0 L 854.5,863.0 L 854.5,861.0 L 854.0,859.5 L 853.5,858.0 L 853.5,856.0 L 853.5,854.0 L 852.5,853.0 L 852.5,851.0 L 852.5,849.0 L 851.5,848.0 L 851.5,846.0 L 851.5,844.0 L 851.5,842.0 L 850.5,841.0 L 850.5,839.0 L 850.5,837.0 L 850.5,835.0 L 849.5,834.0 L 849.5,832.0 L 849.5,830.0 L 849.5,828.0 L 849.5,826.0 L 850.5,825.0 L 850.5,823.0 L 850.5,821.0 L 851.5,820.0 L 851.5,818.0 L 852.5,817.0 L 853.0,815.5 L 853.5,814.0 L 854.5,813.0 L 855.5,812.0 L 856.5,811.0 L 857.0,809.5 L 858.0,808.5 L 859.0,807.5 L 860.0,806.5 L 861.0,805.5 L 862.0,804.5 L 863.5,804.0 L 865.0,803.5 L 866.0,802.5 L 867.5,802.0 L 869.0,801.5 L 870.0,800.5 L 872.0,800.5 L 873.0,799.5 L 875.0,799.5 L 876.5,799.0 L 878.0,798.5 L 880.0,798.5 L 882.0,798.5 L 883.5,799.0 L 885.0,799.5 L 887.0,799.5 L 888.0,800.5 L 890.0,800.5 L 891.0,801.5 L 893.0,801.5 L 894.0,802.5 L 895.5,803.0 L 897.0,803.5 L 898.0,804.5 L 899.5,805.0 L 901.0,805.5 L 902.0,806.5 L 904.0,806.5 L 905.0,807.5 L 906.5,808.0 L 907.5,809.0 L 907.5,811.0 L 907.5,813.0 L 907.5,815.0 L 907.5,817.0 L 907.5,819.0 L 907.5,821.0 L 908.5,822.0 L 908.5,824.0 L 908.5,826.0 L 909.5,827.0 L 909.5,829.0 L 910.5,830.0 L 910.5,832.0 L 911.5,833.0 L 912.0,834.5 L 912.5,836.0 L 913.5,837.0 L 914.0,838.5 L 915.0,839.5 L 915.5,841.0 L 916.5,842.0 L 917.5,843.0 L 918.5,844.0 L 919.5,845.0 L 920.5,846.0 L 921.5,847.0 L 922.5,848.0 L 923.5,849.0 L 924.5,850.0 L 926.0,850.5 L 927.0,851.5 L 928.0,852.5 L 929.5,853.0 L 931.0,853.5 L 932.0,854.5 L 934.0,854.5 L 935.0,855.5 L 937.0,855.5 L 938.0,856.5 L 940.0,856.5 L 941.0,857.5 L 943.0,857.5 L 945.0,857.5 L 947.0,857.5 L 949.0,857.5 L 951.0,857.5 L 953.0,857.5 L 955.0,857.5 L 957.0,857.5 L 958.0,856.5 L 960.0,856.5 L 961.5,856.0 L 963.0,855.5 L 964.0,854.5 L 966.0,854.5 L 967.0,853.5 L 968.5,853.0 L 970.0,852.5 L 971.0,851.5 L 972.0,850.5 L 973.5,850.0 L 974.5,849.0 L 975.5,848.0 L 976.5,847.0 L 977.5,846.0 L 978.5,845.0 L 979.5,844.0 L 980.5,843.0 L 981.5,842.0 L 982.5,841.0 L 983.5,840.0 L 984.0,838.5 L 985.0,837.5 L 985.5,836.0 L 986.5,835.0 L 988.0,834.5 L 990.0,834.5 L 992.0,834.5 L 994.0,834.5 L 995.0,835.5 L 997.0,835.5 L 999.0,835.5 L 1001.0,835.5 L 1002.0,836.5 L 1004.0,836.5 L 1005.0,837.5 L 1006.5,838.0 L 1008.0,838.5 L 1009.0,839.5 L 1010.5,840.0 L 1012.0,840.5 L 1013.0,841.5 L 1014.0,842.5 L 1015.5,843.0 L 1016.5,844.0 L 1018.0,844.5 L 1019.0,845.5 L 1020.0,846.5 L 1021.0,847.5 L 1022.0,848.5 L 1023.0,849.5 L 1024.0,850.5 L 1025.0,851.5 L 1026.0,852.5 L 1027.0,853.5 L 1028.0,854.5 L 1029.0,855.5 L 1030.0,856.5 L 1031.0,857.5 L 1032.0,858.5 L 1033.0,859.5 L 1033.5,861.0 L 1034.5,862.0 L 1035.5,863.0 L 1036.5,864.0 L 1037.5,865.0 L 1038.0,866.5 L 1039.0,867.5 L 1040.0,868.5 L 1040.5,870.0 L 1041.5,871.0 L 1042.5,872.0 L 1043.0,873.5 L 1044.0,874.5 L 1044.5,876.0 L 1045.5,877.0 L 1046.5,878.0 L 1047.0,879.5 L 1048.0,880.5 L 1048.5,882.0 L 1049.5,883.0 L 1050.5,884.0 L 1051.0,885.5 L 1051.5,887.0 L 1052.5,888.0 L 1053.0,889.5 L 1053.5,891.0 L 1054.5,892.0 L 1055.0,893.5 L 1056.0,894.5 L 1056.5,896.0 L 1057.5,897.0 L 1058.0,898.5 L 1058.5,900.0 L 1059.5,901.0 L 1060.0,902.5 L 1060.5,904.0 L 1061.0,905.5 L 1061.5,907.0 L 1062.5,908.0 L 1063.0,909.5 L 1063.5,911.0 L 1064.0,912.5 L 1064.5,914.0 L 1065.5,915.0 L 1065.5,917.0 L 1066.5,918.0 L 1067.0,919.5 L 1067.5,921.0 L 1068.0,922.5 L 1068.5,924.0 L 1069.0,925.5 L 1069.5,927.0 L 1070.0,928.5 L 1070.5,930.0 L 1071.0,931.5 L 1071.5,933.0 L 1071.5,935.0 L 1072.5,936.0 L 1072.5,938.0 L 1073.5,939.0 L 1073.5,941.0 L 1073.5,943.0 L 1074.5,944.0 L 1074.5,946.0 L 1075.5,947.0 L 1075.5,949.0 L 1075.5,951.0 L 1076.5,952.0 L 1076.5,954.0 L 1076.5,956.0 L 1077.0,957.5 L 1077.5,959.0 L 1077.5,961.0 L 1077.5,963.0 L 1078.5,964.0 L 1078.5,966.0 L 1078.5,968.0 L 1078.5,970.0 L 1079.0,971.5 L 1079.5,973.0 L 1079.5,975.0 L 1079.5,977.0 L 1079.5,979.0 L 1079.5,981.0 L 1079.5,983.0 L 1079.5,985.0 L 1079.5,987.0 L 1079.5,989.0 L 1079.5,991.0 L 1079.5,993.0 L 1079.5,995.0 L 1080.5,996.0 L 1080.5,998.0 L 1080.0,999.5 L 1079.5,1001.0 L 1079.5,1003.0 L 1079.5,1005.0 L 1079.5,1007.0 L 1079.5,1009.0 L 1079.5,1011.0 L 1079.5,1013.0 L 1079.5,1015.0 L 1080.5,1016.0 L 1079.5,1017.0 L 1079.5,1019.0 L 1079.5,1021.0 L 1079.5,1023.0 L 1079.5,1025.0 L 1078.5,1026.0 L 1078.5,1028.0 L 1078.5,1030.0 L 1078.5,1032.0 L 1078.5,1034.0 L 1077.5,1035.0 L 1077.5,1037.0 L 1077.5,1039.0 L 1077.0,1040.5 L 1076.5,1042.0 L 1076.5,1044.0 L 1076.5,1046.0 L 1076.0,1047.5 L 1075.5,1049.0 L 1075.5,1051.0 L 1075.0,1052.5 L 1074.5,1054.0 L 1074.5,1056.0 L 1073.5,1057.0 L 1073.5,1059.0 L 1073.0,1060.5 L 1072.5,1062.0 L 1072.5,1064.0 L 1071.5,1065.0 L 1071.5,1067.0 L 1071.0,1068.5 L 1070.5,1070.0 L 1070.0,1071.5 L 1069.5,1073.0 L 1069.0,1074.5 L 1068.5,1076.0 L 1068.5,1078.0 L 1067.5,1079.0 L 1067.5,1081.0 L 1066.5,1082.0 L 1066.0,1083.5 L 1065.5,1085.0 L 1065.0,1086.5 L 1064.5,1088.0 L 1063.5,1089.0 L 1063.5,1091.0 L 1062.5,1092.0 L 1062.0,1093.5 L 1061.5,1095.0 L 1061.0,1096.5 L 1060.5,1098.0 L 1060.0,1099.5 L 1059.5,1101.0 L 1058.5,1102.0 L 1058.0,1103.5 L 1057.5,1105.0 L 1056.5,1106.0 L 1056.0,1107.5 L 1055.5,1109.0 L 1054.5,1110.0 L 1054.0,1111.5 L 1053.5,1113.0 L 1052.5,1114.0 L 1052.0,1115.5 L 1051.5,1117.0 L 1050.5,1118.0 L 1050.0,1119.5 L 1049.5,1121.0 L 1048.5,1122.0 L 1047.5,1123.0 L 1047.0,1124.5 L 1046.5,1126.0 L 1045.5,1127.0 L 1045.0,1128.5 L 1044.0,1129.5 L 1043.5,1131.0 L 1042.5,1132.0 L 1042.0,1133.5 L 1041.0,1134.5 L 1040.5,1136.0 L 1039.5,1137.0 L 1038.5,1138.0 L 1038.0,1139.5 L 1037.0,1140.5 L 1036.5,1142.0 L 1035.5,1143.0 L 1034.5,1144.0 L 1034.0,1145.5 L 1033.0,1146.5 L 1032.0,1147.5 L 1031.5,1149.0 L 1030.5,1150.0 L 1029.5,1151.0 L 1028.5,1152.0 L 1028.0,1153.5 L 1027.0,1154.5 L 1026.0,1155.5 L 1025.5,1157.0 L 1024.5,1158.0 L 1023.5,1159.0 L 1022.5,1160.0 L 1021.5,1161.0 L 1020.5,1162.0 L 1020.0,1163.5 L 1019.0,1164.5 L 1018.0,1165.5 L 1017.0,1166.5 L 1016.0,1167.5 L 1015.0,1168.5 L 1014.0,1169.5 L 1013.0,1170.5 L 1012.5,1172.0 L 1011.5,1173.0 L 1010.5,1174.0 L 1009.5,1175.0 L 1008.5,1176.0 L 1007.5,1177.0 L 1006.5,1178.0 L 1005.5,1179.0 L 1004.5,1180.0 L 1003.5,1181.0 L 1002.5,1182.0 L 1001.5,1183.0 L 1000.5,1184.0 L 999.5,1185.0 L 998.5,1186.0 L 997.0,1186.5 L 996.0,1187.5 L 995.0,1188.5 L 994.0,1189.5 L 993.0,1190.5 L 992.0,1191.5 L 990.5,1192.0 L 989.5,1193.0 L 988.5,1194.0 L 987.5,1195.0 L 986.5,1196.0 L 985.5,1197.0 L 984.0,1197.5 L 983.0,1198.5 L 982.0,1199.5 L 980.5,1200.0 L 979.5,1201.0 L 978.5,1202.0 L 977.5,1203.0 L 976.0,1203.5 L 975.0,1204.5 L 974.0,1205.5 L 972.5,1206.0 L 971.5,1207.0 L 970.0,1207.5 L 969.0,1208.5 L 968.0,1209.5 L 966.5,1210.0 L 965.5,1211.0 L 964.0,1211.5 L 963.0,1212.5 L 962.0,1213.5 L 960.5,1214.0 L 959.5,1215.0 L 958.0,1215.5 L 957.0,1216.5 L 955.5,1217.0 L 954.5,1218.0 L 953.0,1218.5 L 952.0,1219.5 L 950.5,1220.0 L 949.0,1220.5 L 948.0,1221.5 L 946.5,1222.0 L 945.0,1222.5 L 944.0,1223.5 L 942.5,1224.0 L 941.0,1224.5 L 940.0,1225.5 L 938.5,1226.0 L 937.0,1226.5 L 936.0,1227.5 L 934.5,1228.0 L 933.0,1228.5 L 932.0,1229.5 L 930.5,1230.0 L 929.0,1230.5 L 927.5,1231.0 L 926.0,1231.5 L 925.0,1232.5 L 923.5,1233.0 L 922.0,1233.5 L 920.5,1234.0 L 919.0,1234.5 L 918.0,1235.5 L 916.0,1235.5 L 915.0,1236.5 L 913.0,1236.5 L 912.0,1237.5 L 910.0,1237.5 L 909.0,1238.5 L 907.0,1238.5 L 906.0,1239.5 L 904.0,1239.5 L 903.0,1240.5 L 901.0,1240.5 L 900.0,1241.5 L 898.0,1241.5 L 897.0,1242.5 L 895.0,1242.5 L 893.5,1243.0 L 892.0,1243.5 L 890.0,1243.5 L 889.0,1244.5 L 887.0,1244.5 L 885.0,1244.5 L 884.0,1245.5 L 882.0,1245.5 L 880.5,1246.0 L 879.0,1246.5 L 877.0,1246.5 L 875.5,1247.0 L 874.0,1247.5 L 872.0,1247.5 L 870.0,1247.5 L 869.0,1248.5 L 867.0,1248.5 L 865.0,1248.5 L 863.0,1248.5 L 861.5,1249.0 L 860.0,1249.5 L 858.0,1249.5 L 856.0,1249.5 L 854.0,1249.5 L 852.0,1249.5 L 851.0,1250.5 Z"/>
    <path d="M 432.0,1250.5 L 430.0,1250.5 L 428.0,1250.5 L 426.0,1250.5 L 424.0,1250.5 L 422.0,1250.5 L 420.0,1250.5 L 418.0,1250.5 L 416.0,1250.5 L 414.0,1250.5 L 412.0,1250.5 L 410.0,1250.5 L 408.0,1250.5 L 406.0,1250.5 L 404.0,1250.5 L 402.0,1250.5 L 400.0,1250.5 L 398.0,1250.5 L 396.0,1250.5 L 394.0,1250.5 L 392.0,1250.5 L 391.0,1249.5 L 389.0,1249.5 L 387.0,1249.5 L 385.0,1249.5 L 383.0,1249.5 L 382.0,1248.5 L 380.0,1248.5 L 378.0,1248.5 L 376.5,1248.0 L 375.0,1247.5 L 373.0,1247.5 L 371.0,1247.5 L 369.5,1247.0 L 368.0,1246.5 L 366.0,1246.5 L 365.0,1245.5 L 363.0,1245.5 L 361.0,1245.5 L 360.0,1244.5 L 358.0,1244.5 L 356.5,1244.0 L 355.0,1243.5 L 353.0,1243.5 L 352.0,1242.5 L 350.0,1242.5 L 348.5,1242.0 L 347.0,1241.5 L 345.5,1241.0 L 344.0,1240.5 L 342.5,1240.0 L 341.0,1239.5 L 339.0,1239.5 L 338.0,1238.5 L 336.5,1238.0 L 335.0,1237.5 L 333.5,1237.0 L 332.0,1236.5 L 330.5,1236.0 L 329.0,1235.5 L 327.5,1235.0 L 326.0,1234.5 L 325.0,1233.5 L 323.0,1233.5 L 322.0,1232.5 L 320.5,1232.0 L 319.0,1231.5 L 318.0,1230.5 L 316.5,1230.0 L 315.0,1229.5 L 313.5,1229.0 L 312.0,1228.5 L 311.0,1227.5 L 309.5,1227.0 L 308.0,1226.5 L 307.0,1225.5 L 305.5,1225.0 L 304.0,1224.5 L 303.0,1223.5 L 301.5,1223.0 L 300.5,1222.0 L 299.0,1221.5 L 298.0,1220.5 L 296.5,1220.0 L 295.0,1219.5 L 294.0,1218.5 L 292.5,1218.0 L 291.0,1217.5 L 290.0,1216.5 L 289.0,1215.5 L 287.5,1215.0 L 286.5,1214.0 L 285.0,1213.5 L 284.0,1212.5 L 282.5,1212.0 L 281.5,1211.0 L 280.0,1210.5 L 279.0,1209.5 L 278.0,1208.5 L 276.5,1208.0 L 275.5,1207.0 L 274.0,1206.5 L 273.0,1205.5 L 272.0,1204.5 L 271.0,1203.5 L 270.0,1202.5 L 268.5,1202.0 L 267.5,1201.0 L 266.5,1200.0 L 265.0,1199.5 L 264.0,1198.5 L 263.0,1197.5 L 262.0,1196.5 L 260.5,1196.0 L 259.5,1195.0 L 258.5,1194.0 L 257.5,1193.0 L 256.0,1192.5 L 255.0,1191.5 L 254.0,1190.5 L 253.0,1189.5 L 252.0,1188.5 L 251.0,1187.5 L 250.0,1186.5 L 249.0,1185.5 L 248.0,1184.5 L 246.5,1184.0 L 245.5,1183.0 L 244.5,1182.0 L 243.5,1181.0 L 242.5,1180.0 L 241.5,1179.0 L 240.5,1178.0 L 239.5,1177.0 L 238.5,1176.0 L 237.5,1175.0 L 236.5,1174.0 L 235.5,1173.0 L 234.5,1172.0 L 233.5,1171.0 L 232.5,1170.0 L 232.0,1168.5 L 231.0,1167.5 L 230.0,1166.5 L 229.0,1165.5 L 228.0,1164.5 L 227.0,1163.5 L 226.0,1162.5 L 225.0,1161.5 L 224.5,1160.0 L 223.5,1159.0 L 222.5,1158.0 L 221.5,1157.0 L 220.5,1156.0 L 220.0,1154.5 L 219.0,1153.5 L 218.0,1152.5 L 217.0,1151.5 L 216.5,1150.0 L 215.5,1149.0 L 214.5,1148.0 L 214.0,1146.5 L 213.0,1145.5 L 212.0,1144.5 L 211.5,1143.0 L 210.5,1142.0 L 209.5,1141.0 L 208.5,1140.0 L 208.0,1138.5 L 207.5,1137.0 L 206.5,1136.0 L 205.5,1135.0 L 205.0,1133.5 L 204.0,1132.5 L 203.5,1131.0 L 202.5,1130.0 L 201.5,1129.0 L 201.0,1127.5 L 200.5,1126.0 L 199.5,1125.0 L 198.5,1124.0 L 198.0,1122.5 L 197.5,1121.0 L 196.5,1120.0 L 196.0,1118.5 L 195.0,1117.5 L 194.5,1116.0 L 193.5,1115.0 L 193.0,1113.5 L 192.5,1112.0 L 191.5,1111.0 L 191.0,1109.5 L 190.5,1108.0 L 189.5,1107.0 L 189.0,1105.5 L 188.5,1104.0 L 187.5,1103.0 L 187.5,1101.0 L 186.5,1100.0 L 186.0,1098.5 L 185.5,1097.0 L 184.5,1096.0 L 184.0,1094.5 L 183.5,1093.0 L 183.0,1091.5 L 182.5,1090.0 L 182.0,1088.5 L 181.5,1087.0 L 180.5,1086.0 L 180.5,1084.0 L 179.5,1083.0 L 179.0,1081.5 L 178.5,1080.0 L 178.0,1078.5 L 177.5,1077.0 L 177.0,1075.5 L 176.5,1074.0 L 176.5,1072.0 L 175.5,1071.0 L 175.5,1069.0 L 174.5,1068.0 L 174.5,1066.0 L 174.0,1064.5 L 173.5,1063.0 L 173.0,1061.5 L 172.5,1060.0 L 172.5,1058.0 L 171.5,1057.0 L 171.5,1055.0 L 171.0,1053.5 L 170.5,1052.0 L 170.5,1050.0 L 170.0,1048.5 L 169.5,1047.0 L 169.5,1045.0 L 169.0,1043.5 L 168.5,1042.0 L 168.5,1040.0 L 168.5,1038.0 L 167.5,1037.0 L 167.5,1035.0 L 167.5,1033.0 L 167.5,1031.0 L 166.5,1030.0 L 166.5,1028.0 L 166.5,1026.0 L 166.5,1024.0 L 166.5,1022.0 L 166.0,1020.5 L 165.5,1019.0 L 165.5,1017.0 L 165.5,1015.0 L 165.5,1013.0 L 165.5,1011.0 L 165.5,1009.0 L 165.5,1007.0 L 165.5,1005.0 L 165.5,1003.0 L 165.5,1001.0 L 165.5,999.0 L 165.5,997.0 L 165.5,995.0 L 165.5,993.0 L 165.5,991.0 L 165.5,989.0 L 165.5,987.0 L 165.5,985.0 L 165.5,983.0 L 166.0,981.5 L 166.5,980.0 L 166.5,978.0 L 166.5,976.0 L 166.5,974.0 L 166.5,972.0 L 167.5,971.0 L 167.5,969.0 L 167.5,967.0 L 167.5,965.0 L 168.5,964.0 L 168.5,962.0 L 168.5,960.0 L 168.5,958.0 L 169.5,957.0 L 169.5,955.0 L 169.5,953.0 L 170.5,952.0 L 170.5,950.0 L 171.0,948.5 L 171.5,947.0 L 171.5,945.0 L 172.5,944.0 L 172.5,942.0 L 173.5,941.0 L 173.5,939.0 L 174.0,937.5 L 174.5,936.0 L 174.5,934.0 L 175.5,933.0 L 175.5,931.0 L 176.5,930.0 L 176.5,928.0 L 177.5,927.0 L 177.5,925.0 L 178.5,924.0 L 178.5,922.0 L 179.5,921.0 L 179.5,919.0 L 180.5,918.0 L 181.0,916.5 L 181.5,915.0 L 182.5,914.0 L 182.5,912.0 L 183.5,911.0 L 184.0,909.5 L 184.5,908.0 L 185.0,906.5 L 185.5,905.0 L 186.5,904.0 L 187.0,902.5 L 187.5,901.0 L 188.5,900.0 L 189.0,898.5 L 189.5,897.0 L 190.5,896.0 L 191.0,894.5 L 191.5,893.0 L 192.5,892.0 L 193.0,890.5 L 193.5,889.0 L 194.5,888.0 L 195.5,887.0 L 196.0,885.5 L 196.5,884.0 L 197.5,883.0 L 198.5,882.0 L 199.0,880.5 L 199.5,879.0 L 200.5,878.0 L 201.5,877.0 L 202.0,875.5 L 203.0,874.5 L 203.5,873.0 L 204.5,872.0 L 205.5,871.0 L 206.5,870.0 L 207.0,868.5 L 208.0,867.5 L 209.0,866.5 L 210.0,865.5 L 210.5,864.0 L 211.5,863.0 L 212.5,862.0 L 213.5,861.0 L 214.5,860.0 L 215.5,859.0 L 216.0,857.5 L 217.0,856.5 L 218.0,855.5 L 219.0,854.5 L 220.0,853.5 L 221.0,852.5 L 222.0,851.5 L 223.0,850.5 L 224.0,849.5 L 225.0,848.5 L 226.0,847.5 L 227.0,846.5 L 228.5,846.0 L 229.5,845.0 L 230.5,844.0 L 232.0,843.5 L 233.0,842.5 L 234.5,842.0 L 235.5,841.0 L 237.0,840.5 L 238.0,839.5 L 239.5,839.0 L 241.0,838.5 L 242.0,837.5 L 244.0,837.5 L 245.0,836.5 L 246.5,836.0 L 248.0,835.5 L 250.0,835.5 L 252.0,835.5 L 253.5,835.0 L 255.0,834.5 L 257.0,834.5 L 259.0,834.5 L 261.0,834.5 L 261.5,836.0 L 262.5,837.0 L 263.0,838.5 L 264.0,839.5 L 264.5,841.0 L 265.5,842.0 L 266.5,843.0 L 267.5,844.0 L 268.5,845.0 L 269.5,846.0 L 270.5,847.0 L 271.5,848.0 L 272.5,849.0 L 274.0,849.5 L 275.0,850.5 L 276.0,851.5 L 277.5,852.0 L 279.0,852.5 L 280.0,853.5 L 281.5,854.0 L 283.0,854.5 L 284.0,855.5 L 286.0,855.5 L 287.0,856.5 L 289.0,856.5 L 290.5,857.0 L 292.0,857.5 L 294.0,857.5 L 296.0,857.5 L 298.0,857.5 L 300.0,857.5 L 302.0,857.5 L 304.0,857.5 L 306.0,857.5 L 307.0,856.5 L 309.0,856.5 L 310.5,856.0 L 312.0,855.5 L 313.5,855.0 L 315.0,854.5 L 316.5,854.0 L 318.0,853.5 L 319.0,852.5 L 320.0,851.5 L 321.5,851.0 L 323.0,850.5 L 324.0,849.5 L 325.0,848.5 L 326.0,847.5 L 327.0,846.5 L 328.0,845.5 L 329.0,844.5 L 330.0,843.5 L 331.0,842.5 L 331.5,841.0 L 332.5,840.0 L 333.5,839.0 L 334.5,838.0 L 335.0,836.5 L 335.5,835.0 L 336.5,834.0 L 337.0,832.5 L 337.5,831.0 L 338.0,829.5 L 338.5,828.0 L 339.0,826.5 L 339.5,825.0 L 339.5,823.0 L 340.0,821.5 L 340.5,820.0 L 340.5,818.0 L 340.5,816.0 L 340.5,814.0 L 340.5,812.0 L 340.5,810.0 L 341.5,809.0 L 342.5,808.0 L 344.0,807.5 L 345.0,806.5 L 347.0,806.5 L 348.0,805.5 L 349.5,805.0 L 351.0,804.5 L 352.0,803.5 L 354.0,803.5 L 355.0,802.5 L 356.5,802.0 L 358.0,801.5 L 359.5,801.0 L 361.0,800.5 L 362.0,799.5 L 364.0,799.5 L 366.0,799.5 L 368.0,799.5 L 370.0,799.5 L 372.0,799.5 L 374.0,799.5 L 376.0,799.5 L 377.0,800.5 L 378.5,801.0 L 380.0,801.5 L 381.5,802.0 L 382.5,803.0 L 384.0,803.5 L 385.0,804.5 L 386.0,805.5 L 387.5,806.0 L 388.5,807.0 L 389.5,808.0 L 390.5,809.0 L 391.0,810.5 L 392.0,811.5 L 393.0,812.5 L 393.5,814.0 L 394.5,815.0 L 395.0,816.5 L 395.5,818.0 L 396.5,819.0 L 396.5,821.0 L 397.5,822.0 L 397.5,824.0 L 397.5,826.0 L 398.5,827.0 L 398.5,829.0 L 398.5,831.0 L 398.5,833.0 L 397.5,834.0 L 397.5,836.0 L 397.5,838.0 L 396.5,839.0 L 396.5,841.0 L 396.5,843.0 L 395.5,844.0 L 395.5,846.0 L 395.5,848.0 L 395.5,850.0 L 394.5,851.0 L 394.5,853.0 L 394.5,855.0 L 394.0,856.5 L 393.5,858.0 L 393.5,860.0 L 393.0,861.5 L 392.5,863.0 L 392.5,865.0 L 392.5,867.0 L 391.5,868.0 L 391.5,870.0 L 391.5,872.0 L 391.0,873.5 L 390.5,875.0 L 390.5,877.0 L 390.0,878.5 L 389.5,880.0 L 389.5,882.0 L 389.5,884.0 L 389.0,885.5 L 388.5,887.0 L 388.5,889.0 L 388.0,890.5 L 387.5,892.0 L 387.5,894.0 L 387.5,896.0 L 386.5,897.0 L 386.5,899.0 L 386.5,901.0 L 385.5,902.0 L 385.5,904.0 L 385.5,906.0 L 385.0,907.5 L 384.5,909.0 L 384.5,911.0 L 384.5,913.0 L 383.5,914.0 L 383.5,916.0 L 383.5,918.0 L 383.0,919.5 L 382.5,921.0 L 382.5,923.0 L 382.5,925.0 L 381.5,926.0 L 381.5,928.0 L 381.5,930.0 L 381.0,931.5 L 380.5,933.0 L 380.5,935.0 L 380.0,936.5 L 379.5,938.0 L 379.5,940.0 L 379.5,942.0 L 378.5,943.0 L 378.5,945.0 L 378.5,947.0 L 378.0,948.5 L 377.5,950.0 L 377.5,952.0 L 377.5,954.0 L 376.5,955.0 L 376.5,957.0 L 376.5,959.0 L 375.5,960.0 L 375.5,962.0 L 375.5,964.0 L 375.0,965.5 L 374.5,967.0 L 374.5,969.0 L 374.5,971.0 L 373.5,972.0 L 373.5,974.0 L 373.5,976.0 L 372.5,977.0 L 372.5,979.0 L 372.5,981.0 L 372.0,982.5 L 371.5,984.0 L 371.5,986.0 L 371.0,987.5 L 370.5,989.0 L 370.5,991.0 L 370.5,993.0 L 369.5,994.0 L 369.5,996.0 L 369.5,998.0 L 369.0,999.5 L 368.5,1001.0 L 368.5,1003.0 L 368.0,1004.5 L 367.5,1006.0 L 367.5,1008.0 L 367.5,1010.0 L 366.5,1011.0 L 366.5,1013.0 L 366.5,1015.0 L 366.0,1016.5 L 365.5,1018.0 L 365.5,1020.0 L 365.0,1021.5 L 364.5,1023.0 L 364.5,1025.0 L 364.5,1027.0 L 363.5,1028.0 L 363.5,1030.0 L 363.5,1032.0 L 363.0,1033.5 L 362.5,1035.0 L 362.5,1037.0 L 362.5,1039.0 L 361.5,1040.0 L 361.5,1042.0 L 361.5,1044.0 L 361.0,1045.5 L 360.5,1047.0 L 360.5,1049.0 L 360.5,1051.0 L 361.5,1052.0 L 361.5,1054.0 L 362.0,1055.5 L 362.5,1057.0 L 363.0,1058.5 L 363.5,1060.0 L 364.5,1061.0 L 365.0,1062.5 L 365.5,1064.0 L 366.5,1065.0 L 367.5,1066.0 L 368.5,1067.0 L 369.5,1068.0 L 370.5,1069.0 L 371.5,1070.0 L 373.0,1070.5 L 374.0,1071.5 L 375.5,1072.0 L 377.0,1072.5 L 378.0,1073.5 L 380.0,1073.5 L 381.5,1074.0 L 383.0,1074.5 L 385.0,1074.5 L 387.0,1074.5 L 389.0,1074.5 L 390.5,1074.0 L 392.0,1073.5 L 394.0,1073.5 L 395.0,1072.5 L 397.0,1072.5 L 398.0,1071.5 L 399.5,1071.0 L 401.0,1070.5 L 402.0,1069.5 L 403.0,1068.5 L 404.5,1068.0 L 406.0,1067.5 L 407.0,1066.5 L 408.5,1066.0 L 410.0,1065.5 L 411.0,1064.5 L 412.5,1064.0 L 414.0,1063.5 L 415.0,1062.5 L 416.0,1061.5 L 417.5,1061.0 L 419.0,1060.5 L 420.0,1059.5 L 421.5,1059.0 L 423.0,1058.5 L 424.0,1057.5 L 425.5,1057.0 L 426.5,1056.0 L 428.0,1055.5 L 429.0,1054.5 L 430.5,1054.0 L 432.0,1053.5 L 433.0,1052.5 L 434.5,1052.0 L 436.0,1051.5 L 437.0,1050.5 L 438.5,1050.0 L 440.0,1049.5 L 441.0,1048.5 L 442.0,1047.5 L 443.5,1047.0 L 445.0,1046.5 L 446.0,1045.5 L 447.5,1045.0 L 449.0,1044.5 L 450.0,1043.5 L 451.5,1043.0 L 452.5,1042.0 L 454.0,1041.5 L 455.0,1040.5 L 456.5,1040.0 L 458.0,1039.5 L 459.0,1038.5 L 460.5,1038.0 L 461.5,1037.0 L 463.0,1036.5 L 464.0,1035.5 L 465.5,1035.0 L 467.0,1034.5 L 468.0,1033.5 L 469.5,1033.0 L 471.0,1032.5 L 472.0,1031.5 L 473.5,1031.0 L 474.5,1030.0 L 476.0,1029.5 L 477.0,1028.5 L 478.5,1028.0 L 480.0,1027.5 L 481.0,1026.5 L 482.5,1026.0 L 483.5,1025.0 L 485.0,1024.5 L 486.0,1023.5 L 487.5,1023.0 L 489.0,1022.5 L 490.0,1021.5 L 491.5,1021.0 L 493.0,1020.5 L 494.0,1019.5 L 495.5,1019.0 L 496.5,1018.0 L 498.0,1017.5 L 499.0,1016.5 L 500.5,1016.0 L 502.0,1015.5 L 503.0,1014.5 L 504.5,1014.0 L 505.5,1013.0 L 507.0,1012.5 L 508.0,1011.5 L 509.5,1011.0 L 511.0,1010.5 L 512.0,1009.5 L 513.5,1009.0 L 515.0,1008.5 L 516.0,1007.5 L 517.0,1006.5 L 518.5,1006.0 L 520.0,1005.5 L 521.0,1004.5 L 522.5,1004.0 L 524.0,1003.5 L 525.0,1002.5 L 526.5,1002.0 L 528.0,1001.5 L 529.0,1000.5 L 530.0,999.5 L 531.5,999.0 L 533.0,998.5 L 534.0,997.5 L 535.5,997.0 L 537.0,996.5 L 538.0,995.5 L 539.0,994.5 L 540.5,994.0 L 542.0,993.5 L 543.0,992.5 L 544.5,992.0 L 546.0,991.5 L 547.0,990.5 L 548.5,990.0 L 550.0,989.5 L 551.0,988.5 L 552.0,987.5 L 553.5,987.0 L 555.0,986.5 L 556.0,985.5 L 557.5,985.0 L 559.0,984.5 L 560.0,983.5 L 561.5,983.0 L 562.5,982.0 L 564.0,981.5 L 565.0,980.5 L 566.5,980.0 L 568.0,979.5 L 569.0,978.5 L 570.5,978.0 L 572.0,977.5 L 573.0,976.5 L 574.0,975.5 L 575.5,975.0 L 577.0,974.5 L 578.0,973.5 L 580.0,973.5 L 581.0,972.5 L 583.0,972.5 L 584.0,971.5 L 586.0,971.5 L 588.0,971.5 L 590.0,971.5 L 592.0,971.5 L 593.0,972.5 L 595.0,972.5 L 596.0,973.5 L 597.5,974.0 L 599.0,974.5 L 600.0,975.5 L 601.5,976.0 L 603.0,976.5 L 604.0,977.5 L 605.0,978.5 L 606.0,979.5 L 607.0,980.5 L 607.5,982.0 L 608.5,983.0 L 609.5,984.0 L 610.0,985.5 L 610.5,987.0 L 611.5,988.0 L 611.5,990.0 L 612.5,991.0 L 612.5,993.0 L 613.0,994.5 L 613.5,996.0 L 613.5,998.0 L 613.5,1000.0 L 613.5,1002.0 L 613.5,1004.0 L 613.5,1006.0 L 613.5,1008.0 L 613.5,1010.0 L 613.5,1012.0 L 613.0,1013.5 L 612.5,1015.0 L 612.5,1017.0 L 611.5,1018.0 L 610.5,1019.0 L 609.0,1019.5 L 607.5,1020.0 L 606.0,1020.5 L 605.0,1021.5 L 603.5,1022.0 L 602.5,1023.0 L 601.0,1023.5 L 600.0,1024.5 L 599.0,1025.5 L 598.0,1026.5 L 596.5,1027.0 L 595.5,1028.0 L 594.5,1029.0 L 593.5,1030.0 L 593.0,1031.5 L 592.0,1032.5 L 591.0,1033.5 L 590.5,1035.0 L 589.5,1036.0 L 588.5,1037.0 L 588.0,1038.5 L 587.5,1040.0 L 586.5,1041.0 L 586.5,1043.0 L 585.5,1044.0 L 585.5,1046.0 L 585.0,1047.5 L 584.5,1049.0 L 584.5,1051.0 L 584.0,1052.5 L 583.5,1054.0 L 583.5,1056.0 L 583.5,1058.0 L 583.5,1060.0 L 583.5,1062.0 L 584.5,1063.0 L 584.5,1065.0 L 584.5,1067.0 L 585.5,1068.0 L 585.5,1070.0 L 586.0,1071.5 L 586.5,1073.0 L 587.5,1074.0 L 587.5,1076.0 L 588.5,1077.0 L 589.0,1078.5 L 590.0,1079.5 L 590.5,1081.0 L 591.5,1082.0 L 592.5,1083.0 L 593.5,1084.0 L 594.0,1085.5 L 595.0,1086.5 L 596.0,1087.5 L 597.0,1088.5 L 598.0,1089.5 L 599.5,1090.0 L 600.5,1091.0 L 601.5,1092.0 L 603.0,1092.5 L 604.0,1093.5 L 605.5,1094.0 L 607.0,1094.5 L 608.0,1095.5 L 609.5,1096.0 L 611.0,1096.5 L 612.5,1097.0 L 614.0,1097.5 L 614.5,1099.0 L 615.5,1100.0 L 615.5,1102.0 L 616.5,1103.0 L 616.5,1105.0 L 616.5,1107.0 L 616.5,1109.0 L 616.5,1111.0 L 616.5,1113.0 L 616.5,1115.0 L 616.5,1117.0 L 616.0,1118.5 L 615.5,1120.0 L 615.5,1122.0 L 615.5,1124.0 L 614.5,1125.0 L 614.5,1127.0 L 613.5,1128.0 L 613.5,1130.0 L 613.0,1131.5 L 612.5,1133.0 L 612.0,1134.5 L 611.5,1136.0 L 610.5,1137.0 L 610.5,1139.0 L 609.5,1140.0 L 609.0,1141.5 L 608.5,1143.0 L 607.5,1144.0 L 607.0,1145.5 L 606.5,1147.0 L 605.5,1148.0 L 605.0,1149.5 L 604.5,1151.0 L 603.5,1152.0 L 603.0,1153.5 L 602.0,1154.5 L 601.5,1156.0 L 600.5,1157.0 L 599.5,1158.0 L 599.0,1159.5 L 598.0,1160.5 L 597.0,1161.5 L 596.5,1163.0 L 595.5,1164.0 L 594.5,1165.0 L 593.5,1166.0 L 593.0,1167.5 L 592.0,1168.5 L 591.0,1169.5 L 590.0,1170.5 L 589.0,1171.5 L 588.0,1172.5 L 587.0,1173.5 L 586.5,1175.0 L 585.5,1176.0 L 584.5,1177.0 L 583.5,1178.0 L 582.5,1179.0 L 581.5,1180.0 L 580.5,1181.0 L 579.5,1182.0 L 578.5,1183.0 L 577.5,1184.0 L 576.5,1185.0 L 575.5,1186.0 L 574.5,1187.0 L 573.5,1188.0 L 572.5,1189.0 L 571.5,1190.0 L 570.5,1191.0 L 569.5,1192.0 L 568.5,1193.0 L 567.5,1194.0 L 566.5,1195.0 L 565.0,1195.5 L 564.0,1196.5 L 563.0,1197.5 L 562.0,1198.5 L 560.5,1199.0 L 559.5,1200.0 L 558.5,1201.0 L 557.5,1202.0 L 556.0,1202.5 L 555.0,1203.5 L 554.0,1204.5 L 553.0,1205.5 L 551.5,1206.0 L 550.5,1207.0 L 549.0,1207.5 L 548.0,1208.5 L 547.0,1209.5 L 546.0,1210.5 L 544.5,1211.0 L 543.5,1212.0 L 542.0,1212.5 L 541.0,1213.5 L 540.0,1214.5 L 538.5,1215.0 L 537.0,1215.5 L 536.0,1216.5 L 535.0,1217.5 L 533.5,1218.0 L 532.0,1218.5 L 531.0,1219.5 L 530.0,1220.5 L 528.5,1221.0 L 527.0,1221.5 L 526.0,1222.5 L 524.5,1223.0 L 523.0,1223.5 L 522.0,1224.5 L 520.5,1225.0 L 519.0,1225.5 L 518.0,1226.5 L 517.0,1227.5 L 515.5,1228.0 L 514.0,1228.5 L 512.5,1229.0 L 511.0,1229.5 L 510.0,1230.5 L 508.5,1231.0 L 507.0,1231.5 L 506.0,1232.5 L 504.0,1232.5 L 503.0,1233.5 L 501.5,1234.0 L 500.0,1234.5 L 498.5,1235.0 L 497.0,1235.5 L 496.0,1236.5 L 494.0,1236.5 L 493.0,1237.5 L 491.0,1237.5 L 490.0,1238.5 L 488.0,1238.5 L 487.0,1239.5 L 485.0,1239.5 L 484.0,1240.5 L 482.0,1240.5 L 481.0,1241.5 L 479.0,1241.5 L 477.5,1242.0 L 476.0,1242.5 L 474.5,1243.0 L 473.0,1243.5 L 471.0,1243.5 L 470.0,1244.5 L 468.0,1244.5 L 466.5,1245.0 L 465.0,1245.5 L 463.0,1245.5 L 462.0,1246.5 L 460.0,1246.5 L 458.0,1246.5 L 456.5,1247.0 L 455.0,1247.5 L 453.0,1247.5 L 451.0,1247.5 L 450.0,1248.5 L 448.0,1248.5 L 446.0,1248.5 L 444.0,1248.5 L 443.0,1249.5 L 441.0,1249.5 L 439.0,1249.5 L 437.0,1249.5 L 435.0,1249.5 L 433.0,1249.5 L 432.0,1250.5 Z"/>
  </g>
</svg>